<svg width="121" height="30" viewBox="0 0 121 30" fill="none" xmlns="http://www.w3.org/2000/svg">
<path d="M106.384 17.5497C106.384 19.4537 106.432 21.3576 106.368 23.2616C106.321 24.3088 106.59 25.1973 107.209 25.9747C107.447 26.2762 107.907 26.5777 108.288 26.5777C111.794 26.6252 115.317 26.6094 118.839 26.5777C119.156 26.5777 119.553 26.3714 119.759 26.1334C120.092 25.7367 120.346 25.2449 120.553 24.7689C120.965 23.8645 120.68 23.4203 119.68 23.4203C116.665 23.4203 113.651 23.4044 110.636 23.4361C110.049 23.4361 109.827 23.2457 109.859 22.6587C109.89 21.7543 109.906 20.8658 109.859 19.9614C109.827 19.2792 110.113 19.1046 110.747 19.1205C112.302 19.1522 113.873 19.1364 115.428 19.1364C117.824 19.1205 117.522 19.4537 117.57 16.9627C117.586 16.1852 117.268 15.9472 116.538 15.9631C114.634 15.9948 112.731 15.9472 110.827 15.9948C110.128 16.0107 109.795 15.8362 109.859 15.0746C109.922 14.313 109.922 13.5355 109.859 12.774C109.795 12.0283 110.049 11.7585 110.827 11.7744C113.778 11.822 116.745 11.7903 119.712 11.7903C120.664 11.7903 120.965 11.3619 120.568 10.4892C120.346 10.0291 120.124 9.56897 119.807 9.18818C119.585 8.91846 119.188 8.63286 118.855 8.63286C115.285 8.60113 111.715 8.60113 108.145 8.617C107.907 8.617 107.542 8.71219 107.431 8.87086C106.939 9.63244 106.336 10.3306 106.352 11.3619C106.416 13.4404 106.384 15.4871 106.384 17.5497ZM51.1693 26.5935C51.5183 26.5935 51.6928 26.5777 51.8356 26.5935C52.7876 26.7522 53.2795 26.3397 53.7079 25.467C55.8816 21.072 58.1028 16.6771 60.4035 12.3456C61.0064 11.2191 61.1016 10.2988 60.2765 9.33098C60.2607 9.31511 60.2448 9.28338 60.2448 9.26751C59.9751 8.63286 59.4515 8.617 58.8644 8.60113C58.2774 8.58526 58.1028 8.96605 57.8966 9.37858C55.945 13.2658 53.9935 17.1689 52.026 21.0562C51.8832 21.3418 51.6294 21.5639 51.4231 21.8336C51.2169 21.5798 50.963 21.3576 50.8202 21.072C48.8369 17.1689 46.8695 13.25 44.9021 9.33098C44.6641 8.87086 44.4261 8.60113 43.8866 8.60113C42.5539 8.60113 41.4591 10.4099 42.0779 11.6316C44.3626 16.1218 46.6791 20.5961 48.9162 25.118C49.4716 26.2445 50.0428 26.9426 51.1693 26.5935ZM89.0263 26.5935C89.5657 26.5935 89.9306 26.6728 90.248 26.5777C90.6129 26.4666 91.073 26.2762 91.2317 25.9906C93.7227 21.1672 96.1978 16.3122 98.6254 11.4571C98.784 11.1239 98.6888 10.6003 98.5778 10.2036C98.4826 9.85457 98.197 9.56897 98.0383 9.23578C97.7527 8.64873 97.2609 8.617 96.7056 8.60113C96.1344 8.58526 95.944 8.91846 95.7218 9.34685C93.8496 13.1072 91.9457 16.8516 90.0576 20.5961C89.9148 20.8816 89.772 21.1672 89.6292 21.437C89.3436 21.9764 89.058 21.913 88.7883 21.437C88.7089 21.2942 88.6455 21.1514 88.582 21.0086C86.6305 17.1213 84.663 13.2341 82.7115 9.33098C82.5052 8.91846 82.3148 8.60113 81.7436 8.60113C80.4109 8.60113 79.2685 10.3782 79.8873 11.5999C82.172 16.09 84.4885 20.5643 86.7098 25.1021C87.2651 26.2286 87.8839 26.9426 89.0263 26.5935ZM72.0969 17.6291C72.0969 15.0428 72.1128 12.4408 72.0811 9.85457C72.0811 9.45791 71.8431 8.75979 71.6527 8.74393C70.9863 8.6646 70.066 8.5694 69.6535 8.95019C68.9871 9.55311 68.5111 10.4258 68.527 11.4729C68.5746 13.4086 68.5429 15.3284 68.5429 17.2641C68.5429 20.009 68.5429 22.7697 68.5429 25.5146C68.5429 26.4507 68.7333 26.6094 69.6694 26.6252C70.1136 26.6252 70.5738 26.6252 71.018 26.6252C71.9383 26.6094 72.1128 26.4349 72.1128 25.4987C72.1128 22.8649 72.0969 20.247 72.0969 17.6291Z" fill="white"/>
<path fill-rule="evenodd" clip-rule="evenodd" d="M21.1493 0.967948C20.7912 0.367668 20.1438 0 19.4448 0H14.9607C14.257 0 13.6058 0.372706 13.2494 0.979555L0.273372 23.0716C-0.0997469 23.7069 -0.0903003 24.4965 0.297907 25.1226L2.73467 29.0529C3.09661 29.6367 3.73465 29.9918 4.42151 29.9918H30.1031C30.7805 29.9918 31.4111 29.6464 31.7757 29.0755L34.2914 25.1373C34.6958 24.5043 34.7081 23.6972 34.3233 23.0521L21.1493 0.967948ZM26.258 22.9901C28.0564 19.6269 23.2809 8.94426 17.878 7.93913C12.4751 6.934 6.30025 18.5244 8.50552 22.9901C10.7108 27.4557 24.4597 26.3532 26.258 22.9901Z" fill="white"/>
</svg>
