<svg width="85" height="60" viewBox="0 0 85 60" fill="none" xmlns="http://www.w3.org/2000/svg">

<rect width="85" height="60" fill="url(#paint0_linear_40:69)"/>
<path d="M51 39V37C51 35.9391 50.5786 34.9217 49.8284 34.1716C49.0783 33.4214 48.0609 33 47 33H39C37.9391 33 36.9217 33.4214 36.1716 34.1716C35.4214 34.9217 35 35.9391 35 37V39" stroke="white" stroke-width="2" stroke-linecap="round" stroke-linejoin="round"/>
<path d="M43 29C45.2091 29 47 27.2091 47 25C47 22.7909 45.2091 21 43 21C40.7909 21 39 22.7909 39 25C39 27.2091 40.7909 29 43 29Z" stroke="white" stroke-width="2" stroke-linecap="round" stroke-linejoin="round"/>
<defs>
<linearGradient id="paint0_linear_40:69" x1="74.375" y1="-5" x2="30.7233" y2="89.2321" gradientUnits="userSpaceOnUse">

<stop stop-color="#2836E4"/>

<stop offset="1" stop-color="#E11EFC"/>
</linearGradient>
</defs>

</svg>
