<svg width="133" height="28" viewBox="0 0 133 28" fill="none" xmlns="http://www.w3.org/2000/svg">
<g clip-path="url(#clip0_83:538)">
<path d="M129.966 23.5181H130.225V21.8238H130.838V21.6041H129.352V21.8238H129.966V23.5181Z" fill="white"/>
<path d="M131.335 21.9632L131.85 23.5181H132.107L132.622 21.9632V23.5181H132.836V21.6041H132.524L131.988 23.2388L131.433 21.6041H131.076V23.5181H131.335V21.9632ZM88.7646 18.9335V11.0202C88.7646 9.40588 89.5181 8.24984 91.125 8.24984H101.037C101.098 8.24984 101.156 8.18965 101.156 8.12999V6.55551C101.156 6.54168 101.153 6.52807 101.147 6.51538H89.0273C86.4003 6.84934 85.117 8.68016 85.117 11.0202V18.9333C85.117 20.5476 84.3424 21.7037 82.7571 21.7037H72.2891C72.2297 21.7037 72.17 21.7438 72.17 21.8232V23.398C72.17 23.4635 72.2102 23.5136 72.2571 23.53H84.1423C87.2395 23.4487 88.7646 21.4711 88.7646 18.9335ZM48.0412 23.53H51.5215C51.5478 23.5197 51.5702 23.5015 51.5858 23.478C51.6014 23.4545 51.6094 23.4267 51.6086 23.3985V18.3554C51.6086 16.741 52.5205 15.6246 53.8489 15.6246H68.1842C71.4161 15.6246 72.9826 13.6314 72.9826 11.0202C72.9826 8.68016 71.7006 6.84934 69.0723 6.51538H47.9768C47.9707 6.52858 47.9605 6.53888 47.9605 6.55551V8.12999C47.9605 8.20971 48 8.24984 48.0792 8.24984H66.9746C68.5807 8.24984 69.3342 9.40588 69.3342 11.0202C69.3342 12.6348 68.5807 13.7909 66.9746 13.7909H52.0249C49.7052 13.7909 47.9605 15.7645 47.9605 18.3554V23.3988C47.9602 23.4635 47.9882 23.5136 48.0412 23.53Z" fill="white"/>
<path d="M101.098 21.7042H120.133C120.191 21.7042 120.231 21.7438 120.231 21.7839V23.3985C120.231 23.4782 120.291 23.5181 120.349 23.5181H123.78C123.841 23.5181 123.899 23.4782 123.899 23.3985V21.8238C123.899 21.7638 123.959 21.7042 124.018 21.7042H127.428C127.507 21.7042 127.547 21.6443 127.547 21.5849V19.9901C127.547 19.9299 127.507 19.8705 127.428 19.8705H124.018C123.959 19.8705 123.899 19.8103 123.899 19.7511V8.24984C123.899 7.31133 123.55 6.71364 122.964 6.51538H121.971C121.662 6.59484 121.325 6.73714 120.965 6.95388L100.464 19.6112C99.6704 20.1094 99.3925 20.6672 99.591 21.0859C99.7496 21.4449 100.205 21.7042 101.098 21.7042ZM104.072 19.5912L119.953 9.76466C120.053 9.68493 120.252 9.70499 120.252 9.92411V19.7511C120.252 19.8111 120.191 19.8705 120.133 19.8705H104.17C104.032 19.8705 103.971 19.8311 103.953 19.7907C103.931 19.7107 103.971 19.6511 104.072 19.5912Z" fill="white"/>
<path d="M13.5282 0.163696C15.0747 0.451981 16.5948 0.863816 18.1078 1.29308C18.9729 1.5444 19.8362 1.80444 20.6936 2.08137C22.0406 2.51037 23.3817 2.99612 24.6016 3.72053C25.1481 4.05237 25.6729 4.42725 26.1214 4.88449C26.6073 5.36158 27.0054 5.92056 27.2973 6.53579C27.8292 7.64669 28.0114 8.88774 28.0652 10.1079C28.0906 10.9042 28.089 11.7072 27.9401 12.4931C27.8165 13.1761 27.5969 13.8496 27.2315 14.4428C26.9089 14.9665 26.4604 15.4198 25.916 15.7118C25.3939 15.9932 24.7962 16.1273 24.204 16.1155C23.3059 16.1247 22.4344 15.8385 21.6285 15.4631C21.6137 12.7828 21.6261 10.1019 21.6221 7.42203C21.6166 6.93707 21.6496 6.44709 21.5516 5.96873C21.4827 5.59807 21.3317 5.22452 21.0405 4.97293C20.8478 4.79896 20.5976 4.70075 20.3462 4.64769C20.092 4.59937 19.8209 4.70735 19.6635 4.91142C19.4019 5.23825 19.3333 5.67226 19.3214 6.07908C19.3193 13.2548 19.324 20.4307 19.3193 27.6059C17.3887 26.9941 15.4583 26.3816 13.5282 25.7682C13.5264 17.2335 13.5272 8.69872 13.5282 0.163696V0.163696ZM4.85172 18.3225C7.3684 17.4315 9.88244 16.5315 12.4002 15.6437C12.4041 16.6316 12.4002 17.62 12.4018 18.6089C12.4002 18.743 12.4086 18.8777 12.392 19.011C10.402 19.7164 8.41568 20.4342 6.42778 21.1441C6.15217 21.2483 5.86943 21.3661 5.65691 21.5765C5.55791 21.6752 5.47713 21.8212 5.53125 21.9625C5.59936 22.129 5.76937 22.2199 5.92619 22.2882C6.36231 22.4656 6.83909 22.491 7.30372 22.5121C7.82168 22.5039 8.34202 22.4651 8.84916 22.3532C9.19209 22.2856 9.52209 22.1702 9.84892 22.0475C10.6985 21.7399 11.548 21.4305 12.3989 21.1261C12.4049 21.9619 12.3999 22.7983 12.4015 23.6351C12.3989 23.8023 12.4092 23.9704 12.3925 24.1367C11.3476 24.3244 10.2903 24.4517 9.22826 24.4686C7.08962 24.5169 4.94596 24.1858 2.91451 23.5174C2.24844 23.3244 1.58634 23.0673 1.02983 22.6444C0.723597 22.4073 0.449568 22.1092 0.310177 21.7425C0.193491 21.4318 0.201939 21.0733 0.347401 20.7737C0.487583 20.4746 0.732573 20.2386 1.00238 20.0548C1.62647 19.6237 2.31523 19.2948 3.01271 19.0017C3.61436 18.7457 4.23793 18.5461 4.85172 18.3225Z" fill="white"/>
<path d="M25.1011 17.1963C25.6719 17.1303 26.2463 17.1147 26.8203 17.0941C28.7078 17.1012 30.6054 17.3359 32.4112 17.9025C32.7655 18.0102 33.1087 18.1498 33.4616 18.262C34.091 18.492 34.7209 18.7708 35.2246 19.2233C35.5271 19.4991 35.7882 19.8711 35.7917 20.2956C35.8096 20.6414 35.6533 20.973 35.4289 21.2278C35.0023 21.7061 34.4384 22.0351 33.8724 22.3218C33.2697 22.6291 32.6219 22.8273 31.9898 23.0612C28.1323 24.4464 24.2743 25.8311 20.4175 27.2179C20.4167 26.1371 20.4186 25.0568 20.4167 23.9773C20.4226 23.934 20.3991 23.8588 20.4598 23.8474C23.3949 22.8033 26.3292 21.756 29.2641 20.7088C29.6609 20.5604 30.0883 20.4529 30.4249 20.1839C30.5627 20.0757 30.6976 19.9036 30.63 19.7177C30.5595 19.5554 30.3911 19.4656 30.2361 19.3983C29.7968 19.2243 29.3185 19.1908 28.8512 19.1776C28.1197 19.1826 27.3818 19.2726 26.6859 19.5073C24.5953 20.2399 22.5087 20.9815 20.4175 21.7117C20.4178 20.5514 20.4167 19.3919 20.4181 18.2319C21.9305 17.701 23.5103 17.3792 25.1011 17.1963ZM33.6765 25.1888C34.133 25.132 34.6098 25.3366 34.8833 25.7065C35.1818 26.0885 35.2365 26.6392 35.0256 27.0753C34.8125 27.5278 34.326 27.8449 33.8217 27.8285C33.3579 27.8388 32.9086 27.5687 32.6802 27.1685C32.474 26.8163 32.4492 26.3652 32.6089 25.9903C32.7887 25.5573 33.2116 25.2416 33.6765 25.1888ZM33.5773 25.4327C33.3194 25.4926 33.092 25.6439 32.9371 25.8586C32.8457 25.9848 32.7821 26.129 32.7505 26.2816C32.7189 26.4343 32.7201 26.5918 32.7539 26.744C32.8157 27.0277 32.9873 27.2754 33.2312 27.433C33.6016 27.6764 34.1208 27.663 34.4754 27.3958C34.841 27.1374 35.0147 26.6416 34.8888 26.212C34.8112 25.9216 34.6037 25.6743 34.3423 25.5304C34.11 25.4076 33.8328 25.372 33.5773 25.4327Z" fill="white"/>
<path d="M33.2612 25.7433C33.499 25.742 33.7377 25.7431 33.9758 25.7426C34.1105 25.7444 34.2588 25.7758 34.3544 25.8793C34.4502 25.9875 34.4581 26.1454 34.4317 26.2811C34.4167 26.3709 34.3378 26.4239 34.2805 26.4865C34.3301 26.5308 34.394 26.572 34.4059 26.6441C34.4333 26.7816 34.4043 26.9258 34.4484 27.0604C34.4761 27.1082 34.5043 27.1563 34.5065 27.213C34.4077 27.2159 34.3092 27.2141 34.2105 27.2157C34.144 27.0588 34.1939 26.883 34.1522 26.7217C34.1358 26.656 34.0677 26.6151 34.003 26.6172C33.842 26.6106 33.6801 26.6151 33.5199 26.6151C33.5173 26.8152 33.5254 27.0158 33.5149 27.2157C33.4308 27.214 33.3468 27.2141 33.2628 27.2159C33.2583 26.7244 33.2612 26.2339 33.2612 25.7433ZM33.5194 25.9767V26.3835C33.6632 26.3846 33.8074 26.3857 33.9518 26.3841C34.0233 26.3835 34.1065 26.3701 34.153 26.3094C34.1765 26.2704 34.1892 26.226 34.1899 26.1805C34.1906 26.1351 34.1792 26.0903 34.1569 26.0506C34.1197 25.9889 34.0413 25.9825 33.9769 25.9786C33.8243 25.9738 33.6717 25.9767 33.5194 25.9767Z" fill="white"/>
</g>
<defs>
<clipPath id="clip0_83:538">
<rect width="132.77" height="27.6693" fill="white" transform="translate(0.22998 0.161255)"/>
</clipPath>
</defs>
</svg>
