<svg width="121" height="26" viewBox="0 0 121 26" fill="none" xmlns="http://www.w3.org/2000/svg">
<path d="M12.3109 0.0848144C8.30814 0.539674 4.87395 2.63961 2.72853 5.93734C1.90979 7.1882 1.20476 8.93183 0.886355 10.5011C0.689249 11.479 0.689249 14.375 0.886355 15.3529C1.69752 19.3633 4.22199 22.6686 7.80022 24.4425C9.30125 25.1855 10.6886 25.5873 12.4019 25.7692C12.8795 25.8223 16.2985 25.8526 22.0828 25.8526C29.6335 25.8526 31.1648 25.8374 31.9229 25.7389C35.069 25.3295 37.6314 24.0635 39.7541 21.8574C40.7245 20.8491 41.3461 19.9849 41.9526 18.8023C42.9305 16.8843 43.3399 15.1482 43.3399 12.927C43.3399 10.7058 42.9305 8.96973 41.9526 7.05174C41.3461 5.86911 40.7245 5.00488 39.7541 3.9966C37.6314 1.79054 35.069 0.524512 31.9229 0.115138C31.1648 0.0165855 29.6638 0.00142355 21.9539 0.00900454C16.9656 0.0165855 12.6217 0.0469095 12.3109 0.0848144ZM31.4074 8.81811C32.9388 9.23507 34.1896 10.4404 34.5611 11.8657C34.7051 12.4418 34.7051 13.4122 34.5611 13.9883C34.1821 15.4363 32.9236 16.6417 31.3695 17.0359C30.8843 17.1648 30.2096 17.1724 22.0146 17.1724C13.774 17.1724 13.1524 17.1648 12.69 17.0359C11.1813 16.6265 10.1427 15.7244 9.60449 14.3598C9.42255 13.8898 9.39981 13.7382 9.39981 12.927C9.39981 12.1158 9.42255 11.9642 9.60449 11.4942C10.2034 9.97042 11.4846 8.97731 13.1827 8.72714C13.4329 8.68924 17.5266 8.66649 22.2799 8.67408C30.2096 8.68924 30.9601 8.69682 31.4074 8.81811ZM92.5936 10.122V18.6507H95.2469V1.59343H92.5936V10.122ZM114.503 7.17304C113.267 7.44595 112.281 8.16615 111.789 9.16684C111.516 9.71267 111.508 9.76574 111.508 10.5314C111.508 11.244 111.531 11.3805 111.713 11.7747C112.16 12.7223 113.093 13.3212 114.738 13.723C116.86 14.2385 117.338 14.428 117.618 14.8829C118.096 15.6713 117.346 16.437 116.011 16.5128C114.95 16.5735 113.782 16.2475 112.85 15.641C112.615 15.4818 112.38 15.3302 112.327 15.2923C112.266 15.2544 112.008 15.5425 111.554 16.1413C111.175 16.6417 110.856 17.0814 110.849 17.1193C110.78 17.3771 112.729 18.446 113.782 18.7416C114.601 18.9615 116.55 18.9842 117.308 18.7795C118.543 18.446 119.461 17.7485 119.938 16.7706C120.219 16.202 120.226 16.1793 120.226 15.315C120.226 14.4811 120.219 14.4205 119.976 13.9353C119.445 12.8512 118.452 12.2523 116.307 11.7141C115.572 11.5321 114.836 11.3123 114.669 11.2289C114.025 10.8953 113.866 10.3722 114.275 9.9022C114.571 9.56863 115.064 9.40185 115.761 9.40185C116.519 9.40185 116.997 9.51556 117.785 9.87945C118.172 10.0538 118.475 10.1524 118.513 10.1145C118.725 9.87187 119.734 8.4239 119.734 8.35567C119.734 8.2268 118.915 7.74919 118.293 7.51418C117.126 7.05932 115.632 6.93045 114.503 7.17304ZM71.7989 7.40047C69.608 7.88565 68.16 9.28813 67.5687 11.4866C67.4323 11.9642 67.4019 12.3054 67.4019 13.1165C67.3944 14.3067 67.5157 14.8753 67.9554 15.8078C68.5088 16.998 69.282 17.794 70.4192 18.3474C71.382 18.8174 71.8444 18.9084 73.1104 18.916C74.4068 18.916 74.8616 18.8174 75.8775 18.3171C76.5446 17.9835 77.3558 17.3619 77.3558 17.1875C77.3558 17.1345 76.954 16.6948 76.4612 16.202L75.5591 15.2999L75.1194 15.6107C73.6563 16.6341 71.5412 16.346 70.6315 14.989C70.2297 14.3901 70.0629 13.8443 70.0553 13.1165C70.0401 11.6458 70.7603 10.5769 72.0491 10.1524C72.9512 9.84913 74.1869 9.98559 74.9754 10.4708C75.1042 10.5466 75.2483 10.6148 75.2862 10.6148C75.3696 10.6148 76.9009 8.68166 76.9009 8.5831C76.9009 8.40116 75.4833 7.6658 74.7403 7.46112C74.0884 7.28675 72.4585 7.24885 71.7989 7.40047ZM58.3427 7.49902C58.0394 7.57483 57.4936 7.7871 57.1297 7.96146C56.5915 8.2268 56.3413 8.41632 55.7879 8.97731C55.3482 9.41701 55.0146 9.84155 54.8554 10.1448C53.8547 12.04 53.8547 14.193 54.8554 16.0883C55.0146 16.3915 55.3482 16.8161 55.7879 17.2558C56.3413 17.8167 56.5915 17.9987 57.1146 18.2564C58.0167 18.7037 58.7672 18.8781 59.7831 18.8781C60.8292 18.8781 61.5115 18.7265 62.3833 18.3095C63.5053 17.7713 64.3317 16.9449 64.8851 15.8078C65.3551 14.8602 65.484 14.2688 65.484 13.1165C65.484 11.9642 65.3551 11.3729 64.8851 10.4253C64.3317 9.28055 63.5205 8.46939 62.3833 7.92356C62.0119 7.74161 61.4585 7.54451 61.1552 7.47628C60.4123 7.3095 59.0629 7.32466 58.3427 7.49902ZM61.1855 10.3116C63.4523 11.3653 63.4219 14.8677 61.1476 15.9442C60.67 16.1717 60.5866 16.1868 59.8058 16.1868C59.0325 16.1868 58.934 16.1717 58.4791 15.9518C56.9174 15.2089 56.2958 13.2302 57.107 11.6155C57.8423 10.1599 59.639 9.58379 61.1855 10.3116ZM78.9705 11.1985C78.9933 14.3219 79.016 14.8981 79.1297 15.3529C79.577 17.142 80.8279 18.3853 82.5564 18.772C83.3448 18.9463 84.6942 18.8857 85.3916 18.6507C85.9678 18.4536 86.4681 18.211 86.8244 17.938C86.9685 17.8319 87.1125 17.7637 87.1428 17.7864C87.1807 17.8092 87.2111 18.0139 87.2111 18.2413V18.6507H89.5612V7.58241H86.9078V10.5921C86.9078 12.2675 86.8699 13.8291 86.832 14.1021C86.597 15.5728 85.6115 16.4218 84.1559 16.4067C83.6404 16.3991 83.504 16.3688 83.0643 16.1413C82.2304 15.7168 81.821 15.0194 81.677 13.7382C81.6391 13.3743 81.6011 11.8429 81.6011 10.3267V7.58241H78.9326L78.9705 11.1985ZM98.0746 10.9332C98.0974 12.8133 98.158 14.5342 98.2035 14.8526C98.5143 16.8843 99.7045 18.2489 101.585 18.7265C103.048 19.1055 104.867 18.7795 105.951 17.9456L106.308 17.6727L106.353 18.1655L106.406 18.6507H108.741V7.58241H106.088V10.3267C106.088 14.2385 106.004 14.8223 105.345 15.55C104.693 16.2778 103.685 16.581 102.752 16.346C101.873 16.1186 101.297 15.5652 100.993 14.6479C100.834 14.1627 100.827 14.0035 100.796 10.8574L100.773 7.58241H98.0291L98.0746 10.9332Z" fill="white"/>
</svg>
