<svg width="16" height="14" viewBox="0 0 16 14" fill="none" xmlns="http://www.w3.org/2000/svg">
<path d="M1.85668 13.4974C1.78939 13.4972 1.72282 13.4836 1.66089 13.4572C1.59896 13.4309 1.54294 13.3924 1.49612 13.3441C1.45046 13.2969 1.41464 13.241 1.39073 13.1798C1.36682 13.1186 1.35529 13.0532 1.35682 12.9875C1.35801 12.9218 1.37222 12.857 1.39865 12.7968C1.42508 12.7367 1.46319 12.6823 1.51078 12.637L14.0072 0.640399C14.0544 0.594595 14.1101 0.558607 14.1713 0.534524C14.2325 0.510442 14.2978 0.498743 14.3635 0.500107C14.4292 0.501471 14.494 0.51587 14.5541 0.54247C14.6143 0.56907 14.6685 0.60734 14.7137 0.655062C14.7594 0.702309 14.7953 0.758128 14.8193 0.819307C14.8434 0.880486 14.8551 0.945817 14.8538 1.01154C14.8525 1.07726 14.8382 1.14208 14.8118 1.20226C14.7853 1.26244 14.7472 1.31679 14.6997 1.36219L2.20325 13.3588C2.10985 13.4478 1.98573 13.4975 1.85668 13.4974Z" fill="#5B5C60"/>
<path d="M7.99175 12.4974L7.91844 12.498C7.21997 12.498 6.51684 12.3894 5.8277 12.1761C5.71446 12.1398 5.61786 12.0642 5.55523 11.9631C5.4926 11.862 5.46803 11.7419 5.48592 11.6243C5.50381 11.5067 5.56298 11.3993 5.65285 11.3214C5.74271 11.2435 5.85739 11.2001 5.97632 11.1991C6.02652 11.1989 6.07643 11.2066 6.12428 11.2217C6.71611 11.4057 7.32394 11.499 7.92977 11.499L8.09572 11.4996C10.6637 11.4996 13.2649 9.64284 14.8438 7.90534C14.9443 7.79371 14.9998 7.64875 14.9996 7.49853C14.9993 7.34832 14.9433 7.20354 14.8425 7.09224C14.2461 6.43816 13.5854 5.84578 12.8704 5.32407C12.8172 5.28555 12.7722 5.23684 12.738 5.18078C12.7037 5.12472 12.681 5.06242 12.6711 4.9975C12.6564 4.9 12.6709 4.80034 12.7126 4.711C12.7543 4.62167 12.8215 4.54662 12.9056 4.49526C12.9898 4.44389 13.0872 4.41849 13.1857 4.42224C13.2843 4.42598 13.3795 4.4587 13.4595 4.5163C14.2296 5.07847 14.9412 5.71661 15.5836 6.4211C16.1381 7.03625 16.1381 7.96199 15.5856 8.57581C13.8621 10.4726 10.9902 12.4987 8.09639 12.4987L7.99175 12.4974Z" fill="#5B5C60"/>
<path d="M2.52005 10.3391C2.40901 10.339 2.30115 10.3019 2.21347 10.2338C1.56939 9.7333 0.968955 9.17902 0.418649 8.57694C0.151144 8.28186 0.00281156 7.89791 0.0024421 7.49963C0.00207263 7.10134 0.149693 6.71713 0.41665 6.42155C2.14016 4.52542 5.01267 2.5 7.90518 2.5L8.06314 2.50067C8.62698 2.50067 9.18748 2.56865 9.72933 2.70394C9.79305 2.71983 9.85301 2.74811 9.9058 2.78717C9.95859 2.82623 10.0032 2.8753 10.037 2.93159C10.0708 2.98787 10.0932 3.05027 10.1029 3.11522C10.1126 3.18016 10.1094 3.24639 10.0936 3.3101C10.0777 3.37382 10.0494 3.43378 10.0103 3.48657C9.97128 3.53936 9.9222 3.58394 9.86591 3.61776C9.80963 3.65158 9.74723 3.67398 9.68228 3.68369C9.61734 3.6934 9.55112 3.69022 9.4874 3.67433C9.02325 3.55898 8.54674 3.50079 8.06847 3.50105H7.91585C5.34125 3.50105 2.73666 5.35719 1.15777 7.09402C1.05726 7.20566 1.00175 7.35062 1.002 7.50083C1.00225 7.65105 1.05823 7.79582 1.1591 7.90713C1.67071 8.46648 2.22877 8.98151 2.8273 9.44669C2.87938 9.48675 2.92301 9.53673 2.95566 9.59375C2.98831 9.65078 3.00934 9.71371 3.01752 9.77891C3.0257 9.8441 3.02087 9.91028 3.00332 9.9736C2.98577 10.0369 2.95585 10.0961 2.91527 10.1478C2.86823 10.2076 2.8082 10.2559 2.73972 10.289C2.67125 10.3222 2.59612 10.3393 2.52005 10.3391Z" fill="#5B5C60"/>
<path d="M5.50083 7.99901C5.36826 7.99901 5.24112 7.94635 5.14738 7.85261C5.05364 7.75886 5.00098 7.63172 5.00098 7.49915C5.00098 6.69938 5.31289 5.94693 5.87939 5.37976C6.15677 5.10022 6.48688 4.87852 6.85057 4.7275C7.21427 4.57649 7.60432 4.49916 7.99812 4.50001C8.13608 4.50001 8.24738 4.61131 8.24805 4.74927L8.24938 5.24913C8.24938 5.31577 8.22339 5.37909 8.17674 5.42641C8.13008 5.47373 8.06677 5.49972 8.00012 5.49972C7.73742 5.49913 7.47721 5.55067 7.23456 5.65134C6.99191 5.75202 6.77165 5.89983 6.58652 6.08622C6.4003 6.2713 6.25264 6.49148 6.15208 6.73401C6.05153 6.97654 6.00007 7.2366 6.00069 7.49915C6.00087 7.56484 5.98806 7.62992 5.963 7.69065C5.93794 7.75137 5.90113 7.80655 5.85468 7.853C5.80823 7.89945 5.75305 7.93626 5.69233 7.96132C5.6316 7.98638 5.56653 7.99919 5.50083 7.99901Z" fill="#5B5C60"/>
<path d="M8.00011 10.4987C7.96726 10.4988 7.93472 10.4924 7.90436 10.4798C7.874 10.4673 7.84641 10.4489 7.82318 10.4257C7.79996 10.4025 7.78155 10.3749 7.76902 10.3445C7.7565 10.3141 7.75009 10.2816 7.75018 10.2488L7.74951 9.74891C7.74951 9.68293 7.7755 9.61894 7.82282 9.57229C7.84594 9.54899 7.87346 9.53051 7.90378 9.51792C7.9341 9.50534 7.96661 9.4989 7.99944 9.49898C8.26221 9.49974 8.52252 9.44835 8.76528 9.34779C9.00805 9.24723 9.22844 9.0995 9.4137 8.91315C9.59978 8.72772 9.7473 8.50728 9.84773 8.26454C9.94817 8.0218 9.99954 7.76158 9.99887 7.49888C9.99887 7.36631 10.0515 7.23917 10.1453 7.14543C10.239 7.05169 10.3662 6.99902 10.4987 6.99902C10.6313 6.99902 10.7584 7.05169 10.8522 7.14543C10.9459 7.23917 10.9986 7.36631 10.9986 7.49888C10.9998 7.89285 10.9228 8.28314 10.7721 8.64717C10.6215 9.01119 10.4001 9.34172 10.1208 9.61961C9.84303 9.89909 9.51255 10.1207 9.14853 10.2716C8.7845 10.4225 8.39417 10.4997 8.00011 10.4987Z" fill="#5B5C60"/>
</svg>
