<svg width="16" height="12" viewBox="0 0 16 12" fill="none" xmlns="http://www.w3.org/2000/svg">
<path d="M1.66667 11.6361C1.2248 11.6355 0.801189 11.4598 0.488743 11.1473C0.176297 10.8349 0.000532412 10.4113 3.1259e-06 9.9694V1.9694C-0.000423684 1.7499 0.0428611 1.53252 0.127333 1.32992C0.211804 1.12733 0.335771 0.943583 0.492003 0.789403C0.646104 0.634923 0.829204 0.512407 1.03079 0.42889C1.23237 0.345373 1.44847 0.302501 1.66667 0.302737H14.3333C14.5579 0.302367 14.7802 0.347684 14.9868 0.435932C15.1933 0.52418 15.3797 0.653514 15.5347 0.81607C15.8327 1.1234 16 1.53474 16 1.9694V9.9694C16 10.8881 15.252 11.6361 14.3333 11.6361H1.66667ZM0.784003 1.50207C0.70653 1.64562 0.666194 1.80628 0.66667 1.9694V9.9694C0.66667 10.5207 1.11534 10.9694 1.66667 10.9694H14.3333C14.8847 10.9694 15.3333 10.5207 15.3333 9.9694V1.9694C15.3333 1.80407 15.2933 1.6454 15.216 1.50207L8.21067 7.22807C8.15123 7.2767 8.0768 7.30328 8 7.30328C7.92321 7.30328 7.84877 7.2767 7.78934 7.22807L0.784003 1.50207ZM8 6.53874L14.7187 1.0474C14.5968 0.995835 14.4657 0.969309 14.3333 0.969403H1.66667C1.53334 0.969403 1.40267 0.99607 1.28134 1.0474L8 6.53874Z" fill="#5B5C60"/>
</svg>
