<svg width="122" height="58" viewBox="0 0 122 58" fill="none" xmlns="http://www.w3.org/2000/svg">
<path d="M28.6611 41.0931C34.2956 39.0384 39.5748 36.1181 44.3085 32.4377C40.0794 30.7999 36.0897 28.6018 32.4466 25.9023C31.4732 31.0332 30.2098 36.1049 28.6625 41.0931" fill="#E63329"/>
<path d="M46.5114 21.2179C44.0912 18.6027 42.2086 15.5381 40.9704 12.198C38.7787 11.9742 36.6105 11.5613 34.4901 10.9639C34.102 15.978 33.4252 20.9657 32.4629 25.9021C37.3911 25.2038 42.1513 23.6167 46.5114 21.2179Z" fill="#F39121"/>
<path d="M32.4629 25.9005C36.0985 28.6117 40.0898 30.8108 44.3247 32.4359C47.0338 30.3028 49.4832 27.8597 51.6227 25.1565C49.7172 24.1189 47.9903 22.7832 46.5074 21.2002C42.1522 23.6101 37.3922 25.2032 32.4629 25.9005Z" fill="#EC6624"/>
<path d="M32.4616 25.9025C29.6851 23.8434 27.1225 21.511 24.8123 18.9404C23.006 21.2459 20.9915 23.3807 18.7942 25.3178C23.2779 26.3308 27.9075 26.5293 32.4616 25.9039" fill="#E95028"/>
<path d="M22.0726 57.1533C28.4264 58.7229 35.1249 58.0985 41.0784 55.3817C37.8734 55.0476 34.7064 54.4171 31.6181 53.498C28.5509 54.9998 25.3549 56.2231 22.0686 57.1533" fill="#234295"/>
<path d="M13.5369 44.9697C15.4836 49.5907 18.3935 53.7441 22.0728 57.1533C23.1554 55.2023 24.1334 53.1952 25.0027 51.1405C20.9913 49.4563 17.1516 47.3898 13.5369 44.9697Z" fill="#234295"/>
<path d="M22.0728 57.1534C25.3552 56.2261 28.5466 55.0027 31.6074 53.4982C29.3615 52.8424 27.1561 52.0551 25.0027 51.1406C24.1399 53.1983 23.1617 55.2058 22.0728 57.1534Z" fill="#0A66B0"/>
<path d="M28.6611 41.0928C31.2783 44.418 34.2346 47.4621 37.4822 50.1761C41.3451 47.6846 44.9014 44.7478 48.0777 41.4263C41.6771 42.9173 35.0067 42.8028 28.6611 41.0928Z" fill="#7C2F88"/>
<path d="M9.43384 31.4082C10.2572 36.0805 11.6341 40.6382 13.5356 44.9853C18.6992 44.2272 23.7686 42.9278 28.6599 41.1087C21.6131 39.3326 15.0473 36.0199 9.43384 31.4082Z" fill="#7C2F88"/>
<path d="M28.6612 41.0982C24.8004 36.2076 21.4863 30.91 18.7779 25.2998C15.991 27.793 12.8402 29.8475 9.43384 31.3923C15.0394 36.018 21.6086 39.3341 28.6612 41.0982Z" fill="#B92A2E"/>
<path d="M8.38916 21.2021C8.47278 24.6263 8.82206 28.0388 9.43385 31.409C12.8402 29.8641 15.991 27.8097 18.7779 25.3165C15.129 24.4703 11.6274 23.0835 8.38916 21.2021Z" fill="#E32127"/>
<path d="M32.4616 25.9007C27.907 26.5293 23.276 26.3256 18.7942 25.2998C21.5062 30.908 24.8201 36.2052 28.6775 41.0982C30.2121 36.1042 31.4753 31.0309 32.4616 25.9007Z" fill="#D12429"/>
<path d="M44.3086 32.4376C47.2653 33.577 50.3332 34.4042 53.4621 34.9059C55.1904 32.4717 56.706 29.8935 57.9922 27.1998C55.7555 26.9204 53.5902 26.2281 51.6066 25.1582C49.4796 27.8725 47.0288 30.3171 44.3086 32.4376Z" fill="#EF7824"/>
<path d="M9.43381 31.4067C6.09482 28.6704 3.22253 25.4108 0.929005 21.7549C-0.046259 25.5096 -0.256292 29.4219 0.311382 33.2593C3.45529 33.364 6.57989 32.7299 9.43381 31.4081" fill="#8A2E88"/>
<path d="M9.43376 31.4084C8.82198 28.0383 8.4727 24.6258 8.38908 21.2016C6.32671 20.0044 4.38507 18.6107 2.59126 17.04C2.28989 17.7044 2.00473 18.3903 1.752 19.0817C1.43222 19.9583 1.15751 20.8506 0.928955 21.7552C3.2267 25.408 6.09843 28.667 9.43376 31.4071" fill="#C8262B"/>
<path d="M0.311279 33.2598C0.9796 37.7494 2.69225 42.0198 5.31172 45.7283C8.06333 45.6333 10.8075 45.3849 13.5314 44.9843C8.58883 41.7244 4.13725 37.7764 0.311279 33.2598Z" fill="#0B55A3"/>
<path d="M9.43371 31.4082C6.57981 32.7301 3.45519 33.3642 0.311279 33.2594C4.13835 37.7769 8.59133 41.7254 13.5354 44.9853C11.634 40.6382 10.257 36.0805 9.43371 31.4082Z" fill="#2B3B8F"/>
<path d="M22.0741 57.1533C18.3914 53.7471 15.4809 49.5929 13.5382 44.9697C10.8152 45.3775 8.07065 45.6259 5.3186 45.7137C8.72714 50.5485 13.5388 54.2215 19.1036 56.2365C20.0736 56.6071 21.0668 56.9138 22.0768 57.1547" fill="#0A66B0"/>
<path d="M31.6223 53.4979C34.7128 54.4078 37.879 55.0382 41.0826 55.3815C41.8746 55.0169 42.6665 54.6213 43.4261 54.1784C41.3273 53.0373 39.3436 51.6965 37.5026 50.1748C35.6088 51.3934 33.6469 52.5029 31.6264 53.4979" fill="#0B55A3"/>
<path d="M48.094 41.4244C51.227 40.6506 54.1833 39.2862 56.8042 37.4046C57.0096 36.7079 57.2002 36.0274 57.3583 35.332C56.0595 35.2523 54.7608 35.1105 53.4782 34.9053C51.8464 37.2077 50.0468 39.3867 48.094 41.4244Z" fill="#E44025"/>
<path d="M57.9935 27.1992C56.7072 29.8929 55.1916 32.471 53.4634 34.9053C54.7459 35.1105 56.0447 35.2537 57.3435 35.332C57.9513 32.6665 58.1698 29.9272 57.9921 27.1992" fill="#F39121"/>
<path d="M37.4822 50.1765C39.3232 51.6982 41.3069 53.0389 43.4057 54.1801C49.3805 50.7842 53.9462 45.3693 56.2811 38.9097C56.4717 38.4033 56.6298 37.897 56.788 37.3906C54.1671 39.2723 51.2107 40.6366 48.0777 41.4104C44.9137 44.7498 41.3558 47.6933 37.4822 50.1765Z" fill="#9D2B4F"/>
<path d="M34.4739 10.9639C36.5934 11.5611 38.7607 11.9741 40.9515 12.1981C39.6536 8.82762 38.9 5.27256 38.7189 1.66583C37.4064 1.1996 36.0618 0.829538 34.6955 0.558594C34.8244 4.03063 34.7504 7.50722 34.4739 10.9706" fill="#F8AD1C"/>
<path d="M34.4739 10.9635C34.7425 7.49973 34.8165 4.02359 34.6956 0.551499C33.9982 0.409719 33.3022 0.297645 32.5886 0.203125C32.5015 3.40364 31.7803 6.55516 30.4668 9.47553C31.7621 10.0732 33.1019 10.5698 34.4739 10.9608" fill="#F59C20"/>
<path d="M8.38912 21.2017C11.6278 23.0832 15.1299 24.4699 18.7792 25.316C15.5957 19.0016 13.4514 12.2158 12.4287 5.21973C11.5353 5.84025 10.678 6.51108 9.86088 7.22895C8.7167 11.7945 8.22081 16.4982 8.38777 21.2017" fill="#E95028"/>
<path d="M24.7959 18.9404C20.6911 14.4106 17.5355 9.10551 15.5154 3.33789C14.4503 3.89949 13.4192 4.52305 12.4272 5.20533C13.4481 12.202 15.593 18.9881 18.7792 25.3016C20.9762 23.3701 22.9907 21.2407 24.7973 18.9404" fill="#ED7025"/>
<path d="M30.4667 9.49374C26.348 7.54783 22.6056 4.89064 19.4117 1.64453C18.0762 2.12066 16.7745 2.68637 15.5154 3.33779C17.5316 9.10722 20.6938 14.4101 24.8122 18.9282C27.0993 16.0437 29.0002 12.8735 30.4667 9.49779" fill="#F39121"/>
<path d="M40.9514 12.1982C42.1956 15.5354 44.0776 18.5989 46.4925 21.2181C49.4214 19.6072 52.176 17.6981 54.7121 15.5213C54.1377 14.4339 53.4978 13.3823 52.7957 12.3724C48.8491 12.6236 44.8889 12.5654 40.9514 12.1982Z" fill="#F08225"/>
<path d="M51.6293 25.1727C53.3206 23.0411 54.7854 20.7396 56 18.3052C55.621 17.3551 55.1929 16.4253 54.7175 15.5195C52.1921 17.7102 49.436 19.6203 46.4978 21.2164C47.9877 22.8002 49.7214 24.1359 51.6334 25.1727" fill="#F39121"/>
<path d="M57.9923 27.2029C57.8016 24.1457 57.1279 21.1378 55.9962 18.291C54.7736 20.7209 53.3093 23.0217 51.6255 25.1586C53.5986 26.2372 55.7594 26.9301 57.9923 27.2002" fill="#EC6624"/>
<path d="M32.4616 25.9009C33.4259 20.9648 34.1028 15.977 34.4888 10.9626C33.1217 10.5693 31.7847 10.0779 30.4884 9.49219C29.0204 12.8718 27.1119 16.0427 24.8123 18.9226C27.1142 21.5062 29.6776 23.8448 32.4616 25.9009Z" fill="#F08225"/>
<path d="M28.6611 41.0932C27.6163 44.5032 26.3952 47.8569 25.0027 51.1406C27.1615 52.0412 29.3661 52.8282 31.6073 53.4982C33.6296 52.5067 35.5918 51.3971 37.4835 50.1752C34.2284 47.4692 31.2713 44.4242 28.6625 41.0918" fill="#234295"/>
<path d="M28.6612 41.0928C23.7699 42.9119 18.7005 44.2113 13.5369 44.9694C17.1533 47.3868 20.9927 49.4531 25.0027 51.1402C26.4021 47.8592 27.6234 44.5052 28.6612 41.0928Z" fill="#942F88"/>
<path d="M28.6611 41.0928C35.0068 42.8026 41.6772 42.9167 48.0777 41.425C50.0268 39.3839 51.8262 37.2052 53.462 34.9058C50.3314 34.4116 47.2628 33.5841 44.3085 32.4375C39.577 36.1212 34.2973 39.0418 28.6611 41.0928Z" fill="#D12429"/>
<path d="M9.86234 7.23047C6.76474 9.94377 4.28577 13.2894 2.59277 17.0416C4.38615 18.6123 6.32734 20.0059 8.38923 21.2032C8.22227 16.4997 8.71816 11.796 9.86234 7.23047Z" fill="#ED7025"/>
<path d="M52.7972 12.3718C49.3879 7.49274 44.5537 3.78469 38.9554 1.75447C38.8787 1.72083 38.799 1.69417 38.7175 1.6748C38.9157 5.2793 39.6688 8.83174 40.9502 12.207C44.8894 12.5603 48.8499 12.6131 52.7972 12.365" fill="#FCC112"/>
<path d="M32.5886 0.220973C28.1399 -0.331607 23.6236 0.155591 19.3955 1.64417C22.5953 4.88336 26.3365 7.53963 30.4505 9.49338C31.7762 6.57636 32.5031 3.42346 32.5886 0.220973Z" fill="#FCC112"/>
<path d="M112.569 23.1176C112.462 21.8637 112.647 20.6022 113.109 19.4314C115.019 19.7701 116.972 19.7915 118.889 19.4948C121.836 18.6563 122.025 15.1739 121.998 13.1809C120.074 13.0422 118.141 13.111 116.232 13.3861C110.658 14.1774 106.54 18.2283 106.54 24.8271V45.2718H112.558V29.7151H116.676C119.514 29.7151 119.919 27.7532 119.919 24.842H112.555V23.1176H112.569ZM96.5253 35.0177C96.4211 33.4226 96.5651 31.821 96.9524 30.2701C98.4176 30.5112 99.914 30.4897 101.372 30.2066C104.345 29.3046 104.302 25.9654 104.302 24.0358C102.592 23.9259 100.876 24.0111 99.1863 24.2897C94.0872 25.0648 90.491 28.9414 90.491 35.5403V45.2718H96.5091V35.0164L96.5253 35.0177ZM80.8293 40.0381C75.9194 41.3046 72.4664 38.7094 72.4664 33.9307V29.7151C73.6192 28.9959 74.9566 28.6276 76.3154 28.6552C82.1443 28.6552 83.2836 34.826 80.8293 40.0327V40.0381ZM78.0264 23.6713C76.0624 23.7098 74.1463 24.2841 72.4853 25.3321V13.2268C70.2956 13.2518 68.1729 13.9846 66.4348 15.3157V33.8267C66.4348 41.3883 71.1866 45.315 77.1885 45.315C78.659 45.2937 80.1104 44.9789 81.4574 44.3891C82.8044 43.7992 84.0197 42.9462 85.032 41.8803C86.0442 40.8143 86.8329 39.5569 87.3517 38.182C87.8705 36.807 88.109 35.3423 88.053 33.874C88.1007 32.5369 87.8754 31.2041 87.3909 29.9568C86.9064 28.7095 86.1729 27.5738 85.2349 26.6188C84.297 25.6639 83.1743 24.9097 81.9352 24.4023C80.6962 23.8948 79.3667 23.6447 78.0277 23.6672" fill="#241F21"/>
</svg>
