<svg width="301" height="39" viewBox="0 0 301 39" fill="none" xmlns="http://www.w3.org/2000/svg">
<path d="M23.9837 17.9922C25.0723 18.8476 26.0054 19.9362 26.7053 21.2582C27.4829 22.5801 27.8717 24.2131 27.8717 26.1571C27.8717 28.4121 27.4829 30.2784 26.7053 31.8336C25.9277 33.3888 24.9168 34.7107 23.5949 35.7994C22.2729 36.8103 20.7955 37.5879 19.0848 38.1322C18.2294 38.4432 17.4518 38.5987 16.5964 38.6765C15.7411 38.7543 14.8857 38.832 14.0303 38.832C11.542 38.832 9.13142 38.3655 6.72084 37.5101C4.31026 36.577 2.28849 35.1773 0.811042 33.4666C0.577761 33.311 0.5 33.0778 0.5 32.7667C0.5 32.4557 0.577761 32.2224 0.811042 31.9891L6.021 26.4681C6.25428 26.2348 6.48756 26.0793 6.87636 26.0793C7.1874 26.0793 7.49845 26.2348 7.73173 26.4681C8.43157 27.4012 9.44246 28.1788 10.6089 28.8009C11.7753 29.423 12.9417 29.8118 14.0303 29.8118C14.3414 29.8118 14.5747 29.8118 14.8079 29.734C15.0412 29.734 15.2745 29.6563 15.5078 29.5785C15.9743 29.5008 16.3631 29.3452 16.6742 29.112C16.9075 28.8787 17.1407 28.6454 17.2963 28.3344C17.374 28.1788 17.4518 27.9456 17.5296 27.79C17.5296 27.5568 17.6073 27.3235 17.6073 27.0902C17.6073 26.6236 17.5296 26.2348 17.374 26.0793C17.2185 25.7683 16.8297 25.4572 16.3631 25.0684C15.8966 24.7574 15.1967 24.5241 14.4191 24.1353C14.0303 23.9798 13.5638 23.8243 13.0972 23.6687C12.6306 23.5132 12.0863 23.3577 11.542 23.2022C10.9199 23.0466 10.3756 22.8134 9.90902 22.5801C9.3647 22.3468 8.82037 22.1135 8.35381 21.8025C7.26516 21.2582 6.25428 20.6361 5.32115 19.7807C4.46579 18.9253 3.76594 17.8367 3.14386 16.5925C2.59953 15.4261 2.28849 13.9487 2.28849 12.1602C2.28849 9.98288 2.75505 8.19439 3.61042 6.63918C4.46579 5.16173 5.47667 3.91756 6.87636 2.90668C8.12053 1.97355 9.59798 1.27371 11.3865 0.807144C12.2418 0.573862 13.0194 0.418341 13.8748 0.340581C14.4191 0.18506 15.2745 0.1073 16.0521 0.1073C18.0739 0.1073 20.0956 0.496102 22.1952 1.27371C24.2947 2.05131 26.161 3.21772 27.7162 4.69517C27.9495 4.92845 28.105 5.16173 28.105 5.47277C28.105 5.78382 28.0272 6.09486 27.7939 6.32814L22.7395 11.9269C22.5062 12.2379 22.1952 12.3157 21.8841 12.3157C21.5731 12.3157 21.2621 12.1602 21.1065 11.9269C20.4844 11.1493 19.7068 10.5272 18.7737 10.0606C17.7628 9.59408 16.8297 9.3608 15.9743 9.3608C15.5078 9.3608 15.0412 9.43856 14.5747 9.51632C14.2636 9.51632 13.8748 9.67184 13.4082 9.90512C13.0972 10.1384 12.7862 10.3717 12.6306 10.6827C12.4751 10.916 12.3974 11.3048 12.3974 11.6936C12.3974 12.0824 12.4751 12.3935 12.6306 12.6267C12.7084 12.7045 12.7862 12.86 12.8639 12.9378C12.9417 13.0933 13.0972 13.1711 13.2527 13.2488C13.486 13.3266 13.7193 13.4821 13.9526 13.5599C14.1858 13.7154 14.4191 13.7931 14.7302 13.8709C15.43 14.182 16.1299 14.4152 16.7519 14.6485C17.2963 14.804 17.9184 15.0373 18.4627 15.2706C19.007 15.5039 19.6291 15.7372 20.2512 15.9704C20.951 16.2815 21.5731 16.5925 22.1952 16.9036C22.8173 17.2146 23.3616 17.6034 23.9837 17.9922Z" fill="white"/>
<path d="M57.1096 1.74025V9.28302C57.1096 9.67182 56.8764 9.9051 56.4876 9.9051H47.7784V38.2099C47.7784 38.3654 47.7006 38.521 47.6229 38.6765C47.4673 38.832 47.3896 38.832 47.1563 38.832H38.6026C38.4471 38.832 38.2916 38.7542 38.1361 38.6765C37.9806 38.521 37.9806 38.4432 37.9806 38.2099V9.9051H29.2714C28.8826 9.9051 28.7271 9.67182 28.7271 9.28302V1.74025C28.7271 1.35145 28.8826 1.11816 29.2714 1.11816H56.4876C56.8764 1.19592 57.1096 1.35145 57.1096 1.74025Z" fill="white"/>
<path d="M87.1252 37.8989C87.2029 38.0544 87.2029 38.2877 87.1252 38.521C86.9696 38.7542 86.8141 38.832 86.5808 38.832H76.9385C76.6275 38.832 76.472 38.6765 76.3942 38.4432L69.1625 24.3686H67.374V38.2099C67.374 38.3654 67.2962 38.521 67.2185 38.6765C67.0629 38.832 66.9852 38.832 66.7519 38.832H58.7426C58.587 38.832 58.4315 38.7542 58.276 38.6765C58.1205 38.521 58.0427 38.4432 58.0427 38.2099V1.74025C58.0427 1.35145 58.276 1.11816 58.7426 1.11816H71.7286C73.3615 1.11816 74.9945 1.27369 76.6275 1.66249C78.1827 1.97353 79.6601 2.67337 81.0598 3.52874C82.3818 4.46187 83.4704 5.70603 84.1702 7.18348C84.9479 8.66093 85.3367 10.5272 85.3367 12.7045C85.3367 15.3483 84.6368 17.5256 83.3149 19.3141C82.1485 20.9471 80.5155 22.1135 78.4937 22.8911L87.1252 37.8989ZM76.0832 12.549C76.0832 11.8491 75.9276 11.227 75.6166 10.7605C75.3833 10.3717 74.9945 9.98286 74.5279 9.74958C74.2947 9.59406 74.0614 9.5163 73.7503 9.43854C73.5171 9.36078 73.206 9.28302 72.895 9.28302C72.2729 9.20526 71.6508 9.1275 71.1065 9.1275H67.2185V16.5147H70.5622C71.1842 16.5147 71.8841 16.437 72.5839 16.3592C73.206 16.2815 73.7503 16.0482 74.2947 15.8149C74.7612 15.5039 75.15 15.1151 75.5388 14.6485C75.9276 14.0264 76.0832 13.4043 76.0832 12.549Z" fill="white"/>
<path d="M112.008 30.1228C112.164 30.2784 112.242 30.4339 112.242 30.6672V38.0544C112.242 38.2877 112.164 38.4432 112.008 38.5987C111.853 38.7542 111.697 38.832 111.542 38.832H88.3693C88.2138 38.832 88.0582 38.7542 87.9027 38.5987C87.7472 38.4432 87.6694 38.2877 87.6694 38.0544V1.89577C87.6694 1.66249 87.7472 1.50697 87.9027 1.35145C88.0582 1.19593 88.2138 1.11816 88.3693 1.11816H110.764C110.92 1.11816 111.075 1.19593 111.231 1.35145C111.386 1.50697 111.464 1.66249 111.464 1.89577V9.28302C111.464 9.74958 111.231 9.98286 110.764 9.98286H96.8452V15.2706H109.987C110.22 15.2706 110.375 15.3483 110.531 15.5039C110.687 15.6594 110.764 15.8149 110.764 16.0482V23.0466C110.764 23.2799 110.687 23.4354 110.531 23.591C110.375 23.7465 110.22 23.8242 109.987 23.8242H96.8452V29.8896H111.62C111.697 29.9673 111.853 30.0451 112.008 30.1228Z" fill="white"/>
<path d="M149.878 37.8989C149.956 38.0544 149.956 38.1322 149.956 38.2099C149.956 38.5987 149.722 38.832 149.334 38.832H140.236C139.925 38.832 139.769 38.6765 139.691 38.4432L137.203 31.678H124.917L122.584 38.4432C122.506 38.7542 122.273 38.832 122.04 38.832H113.175C112.942 38.832 112.786 38.7542 112.631 38.5987C112.553 38.4432 112.475 38.2099 112.553 37.9766L126.783 1.58473C126.861 1.27368 127.094 1.19592 127.327 1.19592H135.259C135.492 1.19592 135.648 1.35144 135.803 1.58473L149.878 37.8989ZM131.138 13.4043L127.716 23.3577H134.559L131.138 13.4043Z" fill="white"/>
<path d="M186.97 1.42921C187.125 1.58473 187.203 1.81801 187.203 2.05129V37.9766C187.203 38.2099 187.125 38.4432 186.97 38.5987C186.814 38.7542 186.581 38.832 186.347 38.832H179.194C178.96 38.832 178.727 38.7542 178.571 38.5987C178.416 38.4432 178.338 38.2099 178.338 37.9766L178.494 17.5256L172.506 35.3328C172.428 35.7216 172.117 35.9549 171.651 35.9549H164.108C163.641 35.9549 163.408 35.7216 163.253 35.3328L157.421 17.6811L157.576 37.8989V37.9766C157.576 38.2099 157.498 38.4432 157.343 38.5987C157.187 38.7542 156.954 38.832 156.721 38.832H149.878C149.645 38.832 149.411 38.7542 149.256 38.5987C149.1 38.4432 149.022 38.2099 149.022 37.9766V2.05129C149.022 1.81801 149.1 1.58473 149.256 1.42921C149.411 1.27368 149.645 1.19592 149.878 1.19592H160.687C161.075 1.19592 161.309 1.42921 161.542 1.81801L168.307 22.5801L174.761 1.81801C174.839 1.42921 175.15 1.19592 175.617 1.19592H186.503C186.659 1.19592 186.814 1.27368 186.97 1.42921Z" fill="white"/>
<path d="M286.814 22.4246C295.912 22.4246 300.5 18.7698 300.5 11.5381C300.5 4.2286 295.912 0.573853 286.814 0.573853H249.489C245.368 0.573853 241.558 2.4401 238.136 6.09485C236.114 8.27214 233.548 12.549 230.36 17.9922C227.716 22.5801 225.617 25.6905 224.217 27.4012C221.884 30.2006 219.551 31.6003 217.141 31.6003C214.73 31.6003 212.32 30.2006 209.909 27.4012C208.509 25.6905 206.41 22.5801 203.766 17.9922C200.578 12.549 198.012 8.7387 195.99 6.56141C192.569 2.82891 188.758 1.04042 184.637 1.04042V8.03886C187.048 8.03886 189.38 9.43855 191.635 12.2379C193.035 13.8709 195.057 16.9813 197.701 21.5692C200.889 27.0902 203.455 30.9004 205.555 33.0777C208.976 36.8102 212.786 38.5987 217.063 38.5987C221.262 38.5987 225.072 36.7325 228.494 33.0777C230.593 30.9004 233.16 27.0902 236.348 21.5692C238.992 16.9813 241.013 13.4821 242.413 11.7714C244.513 8.97199 247.001 7.1835 249.411 7.1835H286.737C290.391 7.1835 292.18 7.88334 292.18 11.4603C292.18 15.1151 290.391 16.9036 286.737 16.9036H262.164C253.066 16.9036 248.478 20.5583 248.478 27.79V38.7543H256.643V27.9455C256.643 24.2908 258.432 22.5023 262.086 22.5023H268.152L288.369 38.9098H300.267L280.516 22.5023H286.814V22.4246Z" fill="white"/>
</svg>
