<svg width="837" height="177" viewBox="0 0 837 177" fill="none" xmlns="http://www.w3.org/2000/svg">
<path d="M244.597 73.9534H233.869C233.077 73.9534 232.429 74.6014 232.429 75.3934V100.809L215.509 74.9614C215.365 74.3854 214.789 73.9534 214.141 73.9534H203.413C202.621 73.9534 201.973 74.6014 201.973 75.3934V125.289C201.973 126.081 202.621 126.729 203.413 126.729H214.141C214.933 126.729 215.581 126.081 215.581 125.289V99.9454L232.573 125.937C232.861 126.441 233.293 126.729 233.869 126.729H244.597C245.389 126.729 246.037 126.081 246.037 125.289V75.3934C246.037 74.6014 245.389 73.9534 244.597 73.9534ZM300.91 89.2894C299.614 86.1214 297.814 83.3134 295.582 81.0094C293.278 78.7774 290.614 76.9774 287.446 75.7534C284.35 74.5294 280.966 73.9534 277.366 73.9534C273.766 73.9534 270.382 74.5294 267.286 75.7534C264.19 76.9774 261.454 78.7774 259.222 81.0094C256.99 83.3134 255.19 86.1214 253.894 89.2894C252.67 92.5294 252.022 96.1294 252.022 100.161C252.022 104.049 252.67 107.721 253.894 110.961C255.19 114.201 256.99 117.081 259.222 119.385C261.454 121.689 264.19 123.561 267.286 124.857C270.382 126.081 273.766 126.729 277.366 126.729C280.966 126.729 284.35 126.081 287.518 124.857C290.614 123.561 293.278 121.689 295.582 119.385C297.814 117.081 299.614 114.201 300.91 110.961C302.134 107.721 302.782 104.049 302.782 100.161C302.782 96.2014 302.134 92.5294 300.91 89.2894ZM282.118 113.121C280.678 113.769 279.094 114.129 277.366 114.129C275.638 114.129 274.054 113.769 272.614 113.121C271.174 112.401 269.95 111.465 268.942 110.241C267.862 109.017 267.07 107.577 266.494 105.849C265.846 104.121 265.558 102.177 265.558 100.161C265.558 98.1454 265.846 96.2734 266.422 94.6174C266.998 92.8894 267.79 91.4494 268.87 90.2974C269.878 89.0734 271.174 88.1374 272.614 87.4174C274.054 86.7694 275.638 86.4094 277.366 86.4094C279.094 86.4094 280.75 86.7694 282.19 87.4174C283.63 88.1374 284.854 89.0734 285.862 90.2254C286.942 91.4494 287.734 92.8894 288.31 94.6174C288.886 96.2734 289.246 98.1454 289.246 100.161C289.246 102.177 288.886 104.121 288.31 105.849C287.734 107.577 286.87 109.017 285.862 110.241C284.782 111.465 283.558 112.401 282.118 113.121ZM386.238 74.3854C386.022 74.0974 385.662 73.9534 385.374 73.9534H372.99C372.558 73.9534 372.126 74.2414 371.982 74.6734L362.19 107.217L352.614 74.6734C352.47 74.2414 352.038 73.9534 351.606 73.9534H338.934C338.502 73.9534 338.07 74.2414 337.926 74.6734L328.206 107.217L318.558 74.6734C318.414 74.2414 317.982 73.9534 317.55 73.9534H305.022C304.662 73.9534 304.374 74.0974 304.158 74.3854C303.942 74.6734 303.87 75.0334 304.014 75.3214L321.006 126.009C321.15 126.441 321.582 126.729 322.014 126.729H333.606C334.038 126.729 334.398 126.441 334.542 126.009L345.054 96.1294L355.062 126.009C355.206 126.441 355.638 126.729 356.07 126.729H367.662C368.094 126.729 368.454 126.441 368.598 126.009L386.31 75.3214C386.454 75.0334 386.382 74.6734 386.238 74.3854ZM456.792 89.2894C455.496 86.1214 453.696 83.3134 451.464 81.0094C449.16 78.7774 446.496 76.9774 443.328 75.7534C440.232 74.5294 436.848 73.9534 433.248 73.9534C429.648 73.9534 426.264 74.5294 423.168 75.7534C420.072 76.9774 417.336 78.7774 415.104 81.0094C412.872 83.3134 411.072 86.1214 409.776 89.2894C408.552 92.5294 407.904 96.1294 407.904 100.161C407.904 104.049 408.552 107.721 409.776 110.961C411.072 114.201 412.872 117.081 415.104 119.385C417.336 121.689 420.072 123.561 423.168 124.857C426.264 126.081 429.648 126.729 433.248 126.729C436.848 126.729 440.232 126.081 443.4 124.857C446.496 123.561 449.16 121.689 451.464 119.385C453.696 117.081 455.496 114.201 456.792 110.961C458.016 107.721 458.664 104.049 458.664 100.161C458.664 96.2014 458.016 92.5294 456.792 89.2894ZM438 113.121C436.56 113.769 434.976 114.129 433.248 114.129C431.52 114.129 429.936 113.769 428.496 113.121C427.056 112.401 425.832 111.465 424.824 110.241C423.744 109.017 422.952 107.577 422.376 105.849C421.728 104.121 421.44 102.177 421.44 100.161C421.44 98.1454 421.728 96.2734 422.304 94.6174C422.88 92.8894 423.672 91.4494 424.752 90.2974C425.76 89.0734 427.056 88.1374 428.496 87.4174C429.936 86.7694 431.52 86.4094 433.248 86.4094C434.976 86.4094 436.632 86.7694 438.072 87.4174C439.512 88.1374 440.736 89.0734 441.744 90.2254C442.824 91.4494 443.616 92.8894 444.192 94.6174C444.768 96.2734 445.128 98.1454 445.128 100.161C445.128 102.177 444.768 104.121 444.192 105.849C443.616 107.577 442.752 109.017 441.744 110.241C440.664 111.465 439.44 112.401 438 113.121ZM504.753 73.9534H494.025C493.233 73.9534 492.585 74.6014 492.585 75.3934V100.809L475.665 74.9614C475.521 74.3854 474.945 73.9534 474.297 73.9534H463.569C462.777 73.9534 462.129 74.6014 462.129 75.3934V125.289C462.129 126.081 462.777 126.729 463.569 126.729H474.297C475.089 126.729 475.737 126.081 475.737 125.289V99.9454L492.729 125.937C493.017 126.441 493.449 126.729 494.025 126.729H504.753C505.545 126.729 506.193 126.081 506.193 125.289V75.3934C506.193 74.6014 505.545 73.9534 504.753 73.9534ZM576.055 73.9534H563.671C563.239 73.9534 562.807 74.2414 562.663 74.6734L552.871 107.217L543.295 74.6734C543.151 74.2414 542.719 73.9534 542.287 73.9534H529.759C529.399 73.9534 529.039 74.0974 528.895 74.3854C528.679 74.6734 528.607 75.0334 528.751 75.3214L545.743 126.009C545.887 126.441 546.319 126.729 546.751 126.729H558.271C558.775 126.729 559.135 126.441 559.279 126.009L576.991 75.3214C577.135 75.0334 577.063 74.6734 576.847 74.3854C576.703 74.0974 576.343 73.9534 576.055 73.9534ZM618.053 125.433L606.101 104.481C608.909 103.401 611.141 101.745 612.797 99.5134C614.669 96.9934 615.605 93.8974 615.605 90.2254C615.605 87.2014 615.029 84.6094 613.949 82.5214C612.869 80.4334 611.357 78.7054 609.557 77.4094C607.685 76.1854 605.597 75.2494 603.365 74.7454C601.133 74.2414 598.757 73.9534 596.453 73.9534H578.237C577.733 73.9534 577.301 74.3134 577.301 74.8174V125.865C577.301 126.297 577.733 126.729 578.237 126.729H589.469C589.973 126.729 590.333 126.297 590.333 125.865V106.497H592.853L603.005 126.225C603.149 126.513 603.437 126.729 603.797 126.729H617.261C617.621 126.729 617.909 126.513 618.053 126.297C618.197 126.009 618.197 125.649 618.053 125.433ZM602.573 89.8654C602.573 91.0174 602.357 91.9534 601.925 92.6014C601.421 93.3214 600.917 93.8254 600.197 94.2574C599.477 94.6174 598.613 94.9054 597.749 95.0494C596.813 95.1934 595.877 95.2654 594.941 95.2654H590.261V84.9694H595.661C596.453 84.9694 597.317 85.0414 598.181 85.1854C599.045 85.2574 599.765 85.5454 600.413 85.9054C601.061 86.2654 601.565 86.6974 601.925 87.3454C602.357 87.9934 602.573 88.7854 602.573 89.8654ZM631.353 114.777C630.057 113.553 628.545 112.905 626.745 112.905C624.945 112.905 623.361 113.553 622.065 114.849C620.769 116.073 620.121 117.657 620.121 119.385C620.121 120.321 620.337 121.185 620.697 121.905C621.057 122.697 621.561 123.417 622.137 123.921C622.785 124.497 623.433 124.929 624.225 125.289C625.017 125.577 625.881 125.721 626.745 125.721C628.545 125.721 630.129 125.145 631.425 123.849C632.721 122.553 633.369 121.041 633.369 119.241C633.369 117.513 632.721 116.001 631.353 114.777Z" fill="white"/>
<path d="M224.814 154.728H227.3L232.096 169.82H230.006L228.972 166.454H222.988L221.954 169.82H220.018L224.814 154.728ZM228.422 164.694L226.376 157.984C226.273 157.661 226.156 157.104 226.024 156.312H225.936C225.804 157.118 225.687 157.676 225.584 157.984L223.516 164.694H228.422ZM233.391 158.248H234.755L234.997 159.59H235.129C235.731 158.519 236.662 157.984 237.923 157.984C238.847 157.984 239.551 158.262 240.035 158.82C240.534 159.362 240.783 160.25 240.783 161.482V169.82H238.979V161.614C238.979 160.866 238.84 160.345 238.561 160.052C238.283 159.744 237.879 159.59 237.351 159.59C236.75 159.59 236.237 159.876 235.811 160.448C235.401 161.02 235.195 161.79 235.195 162.758V169.82H233.391V158.248ZM248.716 158.248H250.52V169.82H248.716V158.248ZM248.672 153.914H250.542V156.004H248.672V153.914ZM253.436 158.248H254.8L255.042 159.59H255.174C255.746 158.519 256.626 157.984 257.814 157.984C259.061 157.984 259.882 158.541 260.278 159.656C260.572 159.113 260.968 158.702 261.466 158.424C261.98 158.13 262.522 157.984 263.094 157.984C264.913 157.984 265.822 159.15 265.822 161.482V169.82H264.018V161.614C264.018 160.866 263.886 160.345 263.622 160.052C263.358 159.744 262.992 159.59 262.522 159.59C261.965 159.59 261.496 159.876 261.114 160.448C260.733 161.02 260.542 161.79 260.542 162.758V169.82H258.738V161.614C258.738 160.866 258.606 160.345 258.342 160.052C258.078 159.744 257.712 159.59 257.242 159.59C256.685 159.59 256.208 159.876 255.812 160.448C255.431 161.02 255.24 161.79 255.24 162.758V169.82H253.436V158.248ZM268.454 158.248H269.818L270.06 159.59H270.192C270.764 158.519 271.644 157.984 272.832 157.984C274.078 157.984 274.9 158.541 275.296 159.656C275.589 159.113 275.985 158.702 276.484 158.424C276.997 158.13 277.54 157.984 278.112 157.984C279.93 157.984 280.84 159.15 280.84 161.482V169.82H279.036V161.614C279.036 160.866 278.904 160.345 278.64 160.052C278.376 159.744 278.009 159.59 277.54 159.59C276.982 159.59 276.513 159.876 276.132 160.448C275.75 161.02 275.56 161.79 275.56 162.758V169.82H273.756V161.614C273.756 160.866 273.624 160.345 273.36 160.052C273.096 159.744 272.729 159.59 272.26 159.59C271.702 159.59 271.226 159.876 270.83 160.448C270.448 161.02 270.258 161.79 270.258 162.758V169.82H268.454V158.248ZM287.453 170.084C285.987 170.084 284.887 169.607 284.153 168.654C283.435 167.686 283.075 166.146 283.075 164.034C283.075 161.966 283.435 160.44 284.153 159.458C284.872 158.475 285.965 157.984 287.431 157.984C288.722 157.984 289.675 158.416 290.291 159.282C290.922 160.132 291.237 161.511 291.237 163.418V164.562H284.967C284.982 165.911 285.187 166.901 285.583 167.532C285.994 168.162 286.632 168.478 287.497 168.478C288.084 168.478 288.553 168.243 288.905 167.774C289.272 167.304 289.455 166.674 289.455 165.882H291.237C291.237 167.172 290.885 168.199 290.181 168.962C289.492 169.71 288.583 170.084 287.453 170.084ZM289.345 162.956C289.345 161.856 289.184 161.02 288.861 160.448C288.539 159.876 288.062 159.59 287.431 159.59C286.654 159.59 286.067 159.868 285.671 160.426C285.29 160.968 285.063 161.812 284.989 162.956H289.345ZM293.505 158.248H294.869L295.111 159.766H295.243C295.404 159.252 295.646 158.827 295.969 158.49C296.291 158.152 296.702 157.984 297.201 157.984C297.509 157.984 297.795 158.042 298.059 158.16V160.03H297.465C296.834 160.03 296.313 160.25 295.903 160.69C295.507 161.115 295.309 161.804 295.309 162.758V169.82H293.505V158.248ZM302.644 170.084C301.398 170.084 300.466 169.761 299.85 169.116C299.234 168.456 298.926 167.649 298.926 166.696C298.926 166.52 298.926 166.402 298.926 166.344C298.941 166.27 298.948 166.226 298.948 166.212H300.84V166.432C300.84 167.121 301.016 167.642 301.368 167.994C301.72 168.331 302.175 168.5 302.732 168.5C303.231 168.5 303.642 168.353 303.964 168.06C304.302 167.752 304.47 167.326 304.47 166.784C304.47 166.373 304.368 166.036 304.162 165.772C303.957 165.508 303.708 165.302 303.414 165.156C303.121 164.994 302.71 164.818 302.182 164.628C301.537 164.408 301.016 164.188 300.62 163.968C300.224 163.748 299.887 163.425 299.608 163C299.33 162.56 299.19 161.988 299.19 161.284C299.19 160.272 299.513 159.472 300.158 158.886C300.818 158.284 301.698 157.984 302.798 157.984C303.84 157.984 304.654 158.292 305.24 158.908C305.827 159.509 306.12 160.257 306.12 161.152L306.098 161.57H304.228V161.372C304.228 160.858 304.104 160.433 303.854 160.096C303.605 159.744 303.194 159.568 302.622 159.568C302.05 159.568 301.647 159.729 301.412 160.052C301.178 160.374 301.06 160.741 301.06 161.152C301.06 161.65 301.229 162.024 301.566 162.274C301.918 162.508 302.454 162.743 303.172 162.978C303.832 163.212 304.375 163.447 304.8 163.682C305.226 163.902 305.585 164.239 305.878 164.694C306.186 165.148 306.34 165.757 306.34 166.52C306.34 167.708 306.003 168.602 305.328 169.204C304.668 169.79 303.774 170.084 302.644 170.084ZM308.83 158.248H310.634V169.82H308.83V158.248ZM308.786 153.914H310.656V156.004H308.786V153.914ZM312.449 158.248H314.429L315.991 164.122L316.783 167.048H316.871L317.663 164.056L319.225 158.248H321.051L317.729 169.82H315.771L312.449 158.248ZM326.555 170.084C325.088 170.084 323.988 169.607 323.255 168.654C322.536 167.686 322.177 166.146 322.177 164.034C322.177 161.966 322.536 160.44 323.255 159.458C323.974 158.475 325.066 157.984 326.533 157.984C327.824 157.984 328.777 158.416 329.393 159.282C330.024 160.132 330.339 161.511 330.339 163.418V164.562H324.069C324.084 165.911 324.289 166.901 324.685 167.532C325.096 168.162 325.734 168.478 326.599 168.478C327.186 168.478 327.655 168.243 328.007 167.774C328.374 167.304 328.557 166.674 328.557 165.882H330.339C330.339 167.172 329.987 168.199 329.283 168.962C328.594 169.71 327.684 170.084 326.555 170.084ZM328.447 162.956C328.447 161.856 328.286 161.02 327.963 160.448C327.64 159.876 327.164 159.59 326.533 159.59C325.756 159.59 325.169 159.868 324.773 160.426C324.392 160.968 324.164 161.812 324.091 162.956H328.447ZM336.314 158.248H338.294L339.746 164.76C339.893 165.361 340.047 166.278 340.208 167.51H340.296C340.399 166.424 340.516 165.508 340.648 164.76L341.814 158.248H343.904L345.092 164.76C345.224 165.493 345.341 166.41 345.444 167.51H345.532C345.664 166.512 345.818 165.596 345.994 164.76L347.446 158.248H349.272L346.39 169.82H344.388L343.178 163.22C343.031 162.472 342.914 161.584 342.826 160.558H342.738C342.635 161.57 342.518 162.457 342.386 163.22L341.198 169.82H339.196L336.314 158.248ZM353.096 170.084C352.304 170.084 351.6 169.849 350.984 169.38C350.368 168.91 350.06 168.06 350.06 166.828C350.06 165.346 350.558 164.334 351.556 163.792C352.568 163.234 354.02 162.956 355.912 162.956V161.46C355.912 160.858 355.78 160.396 355.516 160.074C355.252 159.751 354.775 159.59 354.086 159.59C353.455 159.59 353 159.766 352.722 160.118C352.443 160.47 352.304 160.902 352.304 161.416V161.68H350.522C350.507 161.592 350.5 161.43 350.5 161.196C350.5 160.169 350.837 159.377 351.512 158.82C352.186 158.262 353.088 157.984 354.218 157.984C355.376 157.984 356.249 158.262 356.836 158.82C357.422 159.377 357.716 160.176 357.716 161.218V167.708C357.716 167.957 357.774 168.148 357.892 168.28C358.009 168.412 358.156 168.478 358.332 168.478H359.036V169.732C358.713 169.908 358.317 169.996 357.848 169.996C357.378 169.996 356.982 169.871 356.66 169.622C356.352 169.358 356.139 169.006 356.022 168.566H355.912C355.618 169.05 355.222 169.424 354.724 169.688C354.24 169.952 353.697 170.084 353.096 170.084ZM353.514 168.478C353.91 168.478 354.291 168.368 354.658 168.148C355.024 167.928 355.325 167.605 355.56 167.18C355.794 166.74 355.912 166.219 355.912 165.618V164.562C354.592 164.562 353.602 164.716 352.942 165.024C352.282 165.317 351.952 165.882 351.952 166.718C351.952 167.348 352.076 167.803 352.326 168.082C352.59 168.346 352.986 168.478 353.514 168.478ZM361.479 173.824C360.951 173.824 360.518 173.765 360.181 173.648V172.394H360.819C361.977 172.394 362.74 171.536 363.107 169.82L359.565 158.248H361.545L363.503 165.156L364.097 167.224H364.185L364.691 165.112L366.341 158.248H368.167L365.219 169.226C364.837 170.663 364.353 171.785 363.767 172.592C363.18 173.413 362.417 173.824 361.479 173.824ZM376.74 170.04C376.007 170.04 375.479 169.79 375.156 169.292C374.833 168.778 374.672 168.14 374.672 167.378V159.854H373.682V158.248H374.672L375.068 155.036H376.476V158.248H378.038V159.854H376.476V167.422C376.476 168.126 376.821 168.478 377.51 168.478H378.038V169.732C377.877 169.82 377.671 169.893 377.422 169.952C377.187 170.01 376.96 170.04 376.74 170.04ZM383.396 170.084C382.032 170.084 380.998 169.592 380.294 168.61C379.605 167.612 379.26 166.087 379.26 164.034C379.26 161.98 379.605 160.462 380.294 159.48C380.998 158.482 382.032 157.984 383.396 157.984C384.76 157.984 385.787 158.482 386.476 159.48C387.18 160.462 387.532 161.98 387.532 164.034C387.532 166.087 387.18 167.612 386.476 168.61C385.787 169.592 384.76 170.084 383.396 170.084ZM383.396 168.478C384.892 168.478 385.64 167.136 385.64 164.452V163.616C385.64 160.932 384.892 159.59 383.396 159.59C381.9 159.59 381.152 160.932 381.152 163.616V164.452C381.152 167.136 381.9 168.478 383.396 168.478ZM398.721 170.084C397.254 170.084 396.154 169.607 395.421 168.654C394.702 167.686 394.343 166.146 394.343 164.034C394.343 161.966 394.702 160.44 395.421 159.458C396.14 158.475 397.232 157.984 398.699 157.984C399.99 157.984 400.943 158.416 401.559 159.282C402.19 160.132 402.505 161.511 402.505 163.418V164.562H396.235C396.25 165.911 396.455 166.901 396.851 167.532C397.262 168.162 397.9 168.478 398.765 168.478C399.352 168.478 399.821 168.243 400.173 167.774C400.54 167.304 400.723 166.674 400.723 165.882H402.505C402.505 167.172 402.153 168.199 401.449 168.962C400.76 169.71 399.85 170.084 398.721 170.084ZM400.613 162.956C400.613 161.856 400.452 161.02 400.129 160.448C399.806 159.876 399.33 159.59 398.699 159.59C397.922 159.59 397.335 159.868 396.939 160.426C396.558 160.968 396.33 161.812 396.257 162.956H400.613ZM404.772 158.248H406.136L406.378 159.59H406.51C407.111 158.519 408.043 157.984 409.304 157.984C410.228 157.984 410.932 158.262 411.416 158.82C411.915 159.362 412.164 160.25 412.164 161.482V169.82H410.36V161.614C410.36 160.866 410.221 160.345 409.942 160.052C409.663 159.744 409.26 159.59 408.732 159.59C408.131 159.59 407.617 159.876 407.192 160.448C406.781 161.02 406.576 161.79 406.576 162.758V169.82H404.772V158.248ZM414.101 173.824C413.588 173.824 413.082 173.736 412.583 173.56V172.306H413.551C414.241 172.306 414.585 171.954 414.585 171.25V158.248H416.389V171.162C416.389 171.924 416.206 172.555 415.839 173.054C415.487 173.567 414.908 173.824 414.101 173.824ZM414.541 153.914H416.411V156.004H414.541V153.914ZM422.497 170.084C421.133 170.084 420.099 169.592 419.395 168.61C418.706 167.612 418.361 166.087 418.361 164.034C418.361 161.98 418.706 160.462 419.395 159.48C420.099 158.482 421.133 157.984 422.497 157.984C423.861 157.984 424.888 158.482 425.577 159.48C426.281 160.462 426.633 161.98 426.633 164.034C426.633 166.087 426.281 167.612 425.577 168.61C424.888 169.592 423.861 170.084 422.497 170.084ZM422.497 168.478C423.993 168.478 424.741 167.136 424.741 164.452V163.616C424.741 160.932 423.993 159.59 422.497 159.59C421.001 159.59 420.253 160.932 420.253 163.616V164.452C420.253 167.136 421.001 168.478 422.497 168.478ZM429.649 173.824C429.121 173.824 428.688 173.765 428.351 173.648V172.394H428.989C430.147 172.394 430.91 171.536 431.277 169.82L427.735 158.248H429.715L431.673 165.156L432.267 167.224H432.355L432.861 165.112L434.511 158.248H436.337L433.389 169.226C433.007 170.663 432.523 171.785 431.937 172.592C431.35 173.413 430.587 173.824 429.649 173.824ZM443.678 173.824C443.15 173.824 442.717 173.765 442.38 173.648V172.394H443.018C444.177 172.394 444.939 171.536 445.306 169.82L441.764 158.248H443.744L445.702 165.156L446.296 167.224H446.384L446.89 165.112L448.54 158.248H450.366L447.418 169.226C447.037 170.663 446.553 171.785 445.966 172.592C445.379 173.413 444.617 173.824 443.678 173.824ZM455.583 170.084C454.219 170.084 453.185 169.592 452.481 168.61C451.792 167.612 451.447 166.087 451.447 164.034C451.447 161.98 451.792 160.462 452.481 159.48C453.185 158.482 454.219 157.984 455.583 157.984C456.947 157.984 457.974 158.482 458.663 159.48C459.367 160.462 459.719 161.98 459.719 164.034C459.719 166.087 459.367 167.612 458.663 168.61C457.974 169.592 456.947 170.084 455.583 170.084ZM455.583 168.478C457.079 168.478 457.827 167.136 457.827 164.452V163.616C457.827 160.932 457.079 159.59 455.583 159.59C454.087 159.59 453.339 160.932 453.339 163.616V164.452C453.339 167.136 454.087 168.478 455.583 168.478ZM464.781 170.084C463.857 170.084 463.145 169.812 462.647 169.27C462.163 168.712 461.921 167.818 461.921 166.586V158.248H463.725V166.454C463.725 167.202 463.864 167.73 464.143 168.038C464.421 168.331 464.825 168.478 465.353 168.478C465.954 168.478 466.46 168.192 466.871 167.62C467.296 167.048 467.509 166.278 467.509 165.31V158.248H469.313V169.82H467.949L467.707 168.478H467.575C466.973 169.548 466.042 170.084 464.781 170.084ZM471.954 158.248H473.318L473.56 159.766H473.692C473.853 159.252 474.095 158.827 474.418 158.49C474.74 158.152 475.151 157.984 475.65 157.984C475.958 157.984 476.244 158.042 476.508 158.16V160.03H475.914C475.283 160.03 474.762 160.25 474.352 160.69C473.956 161.115 473.758 161.804 473.758 162.758V169.82H471.954V158.248ZM482.865 159.854H481.853V158.248H482.865V156.4C482.865 155.637 483.041 155.006 483.393 154.508C483.76 153.994 484.347 153.738 485.153 153.738C485.667 153.738 486.173 153.826 486.671 154.002V155.256H485.703C485.014 155.256 484.669 155.608 484.669 156.312V158.248H486.671V159.854H484.669V169.82H482.865V159.854ZM490.445 170.084C489.653 170.084 488.949 169.849 488.333 169.38C487.717 168.91 487.409 168.06 487.409 166.828C487.409 165.346 487.908 164.334 488.905 163.792C489.917 163.234 491.369 162.956 493.261 162.956V161.46C493.261 160.858 493.129 160.396 492.865 160.074C492.601 159.751 492.124 159.59 491.435 159.59C490.804 159.59 490.35 159.766 490.071 160.118C489.792 160.47 489.653 160.902 489.653 161.416V161.68H487.871C487.856 161.592 487.849 161.43 487.849 161.196C487.849 160.169 488.186 159.377 488.861 158.82C489.536 158.262 490.438 157.984 491.567 157.984C492.726 157.984 493.598 158.262 494.185 158.82C494.772 159.377 495.065 160.176 495.065 161.218V167.708C495.065 167.957 495.124 168.148 495.241 168.28C495.358 168.412 495.505 168.478 495.681 168.478H496.385V169.732C496.062 169.908 495.666 169.996 495.197 169.996C494.728 169.996 494.332 169.871 494.009 169.622C493.701 169.358 493.488 169.006 493.371 168.566H493.261C492.968 169.05 492.572 169.424 492.073 169.688C491.589 169.952 491.046 170.084 490.445 170.084ZM490.863 168.478C491.259 168.478 491.64 168.368 492.007 168.148C492.374 167.928 492.674 167.605 492.909 167.18C493.144 166.74 493.261 166.219 493.261 165.618V164.562C491.941 164.562 490.951 164.716 490.291 165.024C489.631 165.317 489.301 165.882 489.301 166.718C489.301 167.348 489.426 167.803 489.675 168.082C489.939 168.346 490.335 168.478 490.863 168.478ZM496.914 158.248H498.894L500.456 164.122L501.248 167.048H501.336L502.128 164.056L503.69 158.248H505.516L502.194 169.82H500.236L496.914 158.248ZM510.734 170.084C509.37 170.084 508.336 169.592 507.632 168.61C506.942 167.612 506.598 166.087 506.598 164.034C506.598 161.98 506.942 160.462 507.632 159.48C508.336 158.482 509.37 157.984 510.734 157.984C512.098 157.984 513.124 158.482 513.814 159.48C514.518 160.462 514.87 161.98 514.87 164.034C514.87 166.087 514.518 167.612 513.814 168.61C513.124 169.592 512.098 170.084 510.734 170.084ZM510.734 168.478C512.23 168.478 512.978 167.136 512.978 164.452V163.616C512.978 160.932 512.23 159.59 510.734 159.59C509.238 159.59 508.49 160.932 508.49 163.616V164.452C508.49 167.136 509.238 168.478 510.734 168.478ZM517.071 158.248H518.435L518.677 159.766H518.809C518.97 159.252 519.212 158.827 519.535 158.49C519.858 158.152 520.268 157.984 520.767 157.984C521.075 157.984 521.361 158.042 521.625 158.16V160.03H521.031C520.4 160.03 519.88 160.25 519.469 160.69C519.073 161.115 518.875 161.804 518.875 162.758V169.82H517.071V158.248ZM523.373 158.248H525.177V169.82H523.373V158.248ZM523.329 153.914H525.199V156.004H523.329V153.914ZM530.138 170.04C529.405 170.04 528.877 169.79 528.554 169.292C528.232 168.778 528.07 168.14 528.07 167.378V159.854H527.08V158.248H528.07L528.466 155.036H529.874V158.248H531.436V159.854H529.874V167.422C529.874 168.126 530.219 168.478 530.908 168.478H531.436V169.732C531.275 169.82 531.07 169.893 530.82 169.952C530.586 170.01 530.358 170.04 530.138 170.04ZM537.08 170.084C535.614 170.084 534.514 169.607 533.78 168.654C533.062 167.686 532.702 166.146 532.702 164.034C532.702 161.966 533.062 160.44 533.78 159.458C534.499 158.475 535.592 157.984 537.058 157.984C538.349 157.984 539.302 158.416 539.918 159.282C540.549 160.132 540.864 161.511 540.864 163.418V164.562H534.594C534.609 165.911 534.814 166.901 535.21 167.532C535.621 168.162 536.259 168.478 537.124 168.478C537.711 168.478 538.18 168.243 538.532 167.774C538.899 167.304 539.082 166.674 539.082 165.882H540.864C540.864 167.172 540.512 168.199 539.808 168.962C539.119 169.71 538.21 170.084 537.08 170.084ZM538.972 162.956C538.972 161.856 538.811 161.02 538.488 160.448C538.166 159.876 537.689 159.59 537.058 159.59C536.281 159.59 535.694 159.868 535.298 160.426C534.917 160.968 534.69 161.812 534.616 162.956H538.972ZM548.137 158.248H549.501L549.743 159.59H549.875C550.447 158.519 551.327 157.984 552.515 157.984C553.762 157.984 554.583 158.541 554.979 159.656C555.273 159.113 555.669 158.702 556.167 158.424C556.681 158.13 557.223 157.984 557.795 157.984C559.614 157.984 560.523 159.15 560.523 161.482V169.82H558.719V161.614C558.719 160.866 558.587 160.345 558.323 160.052C558.059 159.744 557.693 159.59 557.223 159.59C556.666 159.59 556.197 159.876 555.815 160.448C555.434 161.02 555.243 161.79 555.243 162.758V169.82H553.439V161.614C553.439 160.866 553.307 160.345 553.043 160.052C552.779 159.744 552.413 159.59 551.943 159.59C551.386 159.59 550.909 159.876 550.513 160.448C550.132 161.02 549.941 161.79 549.941 162.758V169.82H548.137V158.248ZM566.851 170.084C565.487 170.084 564.453 169.592 563.749 168.61C563.06 167.612 562.715 166.087 562.715 164.034C562.715 161.98 563.06 160.462 563.749 159.48C564.453 158.482 565.487 157.984 566.851 157.984C568.215 157.984 569.242 158.482 569.931 159.48C570.635 160.462 570.987 161.98 570.987 164.034C570.987 166.087 570.635 167.612 569.931 168.61C569.242 169.592 568.215 170.084 566.851 170.084ZM566.851 168.478C568.347 168.478 569.095 167.136 569.095 164.452V163.616C569.095 160.932 568.347 159.59 566.851 159.59C565.355 159.59 564.607 160.932 564.607 163.616V164.452C564.607 167.136 565.355 168.478 566.851 168.478ZM572.088 158.248H574.068L575.63 164.122L576.422 167.048H576.51L577.302 164.056L578.864 158.248H580.69L577.368 169.82H575.41L572.088 158.248ZM582.498 158.248H584.302V169.82H582.498V158.248ZM582.454 153.914H584.324V156.004H582.454V153.914ZM591.199 170.084C589.733 170.084 588.633 169.607 587.899 168.654C587.181 167.686 586.821 166.146 586.821 164.034C586.821 161.966 587.181 160.44 587.899 159.458C588.618 158.475 589.711 157.984 591.177 157.984C592.468 157.984 593.421 158.416 594.037 159.282C594.668 160.132 594.983 161.511 594.983 163.418V164.562H588.713C588.728 165.911 588.933 166.901 589.329 167.532C589.74 168.162 590.378 168.478 591.243 168.478C591.83 168.478 592.299 168.243 592.651 167.774C593.018 167.304 593.201 166.674 593.201 165.882H594.983C594.983 167.172 594.631 168.199 593.927 168.962C593.238 169.71 592.329 170.084 591.199 170.084ZM593.091 162.956C593.091 161.856 592.93 161.02 592.607 160.448C592.285 159.876 591.808 159.59 591.177 159.59C590.4 159.59 589.813 159.868 589.417 160.426C589.036 160.968 588.809 161.812 588.735 162.956H593.091ZM600.375 170.084C599.128 170.084 598.197 169.761 597.581 169.116C596.965 168.456 596.657 167.649 596.657 166.696C596.657 166.52 596.657 166.402 596.657 166.344C596.671 166.27 596.679 166.226 596.679 166.212H598.571V166.432C598.571 167.121 598.747 167.642 599.099 167.994C599.451 168.331 599.905 168.5 600.463 168.5C600.961 168.5 601.372 168.353 601.695 168.06C602.032 167.752 602.201 167.326 602.201 166.784C602.201 166.373 602.098 166.036 601.893 165.772C601.687 165.508 601.438 165.302 601.145 165.156C600.851 164.994 600.441 164.818 599.913 164.628C599.267 164.408 598.747 164.188 598.351 163.968C597.955 163.748 597.617 163.425 597.339 163C597.06 162.56 596.921 161.988 596.921 161.284C596.921 160.272 597.243 159.472 597.889 158.886C598.549 158.284 599.429 157.984 600.529 157.984C601.57 157.984 602.384 158.292 602.971 158.908C603.557 159.509 603.851 160.257 603.851 161.152L603.829 161.57H601.959V161.372C601.959 160.858 601.834 160.433 601.585 160.096C601.335 159.744 600.925 159.568 600.353 159.568C599.781 159.568 599.377 159.729 599.143 160.052C598.908 160.374 598.791 160.741 598.791 161.152C598.791 161.65 598.959 162.024 599.297 162.274C599.649 162.508 600.184 162.743 600.903 162.978C601.563 163.212 602.105 163.447 602.531 163.682C602.956 163.902 603.315 164.239 603.609 164.694C603.917 165.148 604.071 165.757 604.071 166.52C604.071 167.708 603.733 168.602 603.059 169.204C602.399 169.79 601.504 170.084 600.375 170.084ZM606.362 167.444H608.562V169.82H606.362V167.444Z" fill="#9199FF"/>
<mask id="mask0_36:24" style="mask-type:alpha" maskUnits="userSpaceOnUse" x="76" y="2" width="675" height="54">
<path d="M124.218 2.66801H111.725C111.289 2.66801 110.853 2.95855 110.708 3.39437L100.829 36.2256L91.169 3.39437C91.0237 2.95855 90.5879 2.66801 90.1521 2.66801H77.5135C77.1503 2.66801 76.7871 2.81329 76.6419 3.10382C76.424 3.39437 76.3513 3.75754 76.4966 4.04808L93.6386 55.1834C93.7838 55.6192 94.2197 55.9098 94.6555 55.9098H106.277C106.786 55.9098 107.149 55.6192 107.294 55.1834L125.162 4.04808C125.308 3.75754 125.235 3.39437 125.017 3.10382C124.872 2.81329 124.509 2.66801 124.218 2.66801ZM141.963 2.66801H129.47C128.962 2.66801 128.598 3.03119 128.598 3.53964V55.0382C128.598 55.5466 128.962 55.9098 129.47 55.9098H141.963C142.472 55.9098 142.835 55.5466 142.835 55.0382V3.53964C142.835 3.03119 142.472 2.66801 141.963 2.66801ZM190.907 16.5414C189.236 13.1275 187.057 10.3674 184.443 8.33358C181.828 6.29978 178.777 4.84708 175.363 3.97545C172.094 3.10382 168.681 2.66801 165.267 2.66801H148.052C147.544 2.66801 147.181 3.10382 147.181 3.53964V55.0382C147.181 55.5466 147.544 55.9098 148.052 55.9098H165.775C169.116 55.9098 172.458 55.4013 175.726 54.3844C178.995 53.3675 181.973 51.7696 184.588 49.5905C187.203 47.4114 189.309 44.5787 190.907 41.1648C192.505 37.8236 193.304 33.756 193.304 29.1799C193.304 24.1681 192.505 19.9552 190.907 16.5414ZM160.763 15.0887H164.976C166.865 15.0887 168.753 15.3066 170.497 15.7424C172.24 16.1782 173.838 16.9772 175.145 18.0667C176.525 19.0836 177.615 20.5363 178.414 22.2796C179.213 24.0955 179.649 26.4198 179.649 29.1799C179.649 31.8675 179.213 34.1918 178.414 36.0077C177.615 37.7509 176.525 39.2036 175.145 40.2932C173.765 41.3827 172.24 42.1817 170.424 42.6175C168.608 43.126 166.647 43.4165 164.686 43.4165H160.763V15.0887ZM231.957 43.2712H211.11V34.7729H229.633C230.214 34.7729 230.649 34.2644 230.649 33.6833V23.8049C230.649 23.2238 230.214 22.7154 229.633 22.7154H211.11V15.1613H230.795C231.303 15.1613 231.739 14.7255 231.739 14.1444V3.75754C231.739 3.17646 231.303 2.66801 230.795 2.66801H199.198C198.69 2.66801 198.181 3.17646 198.181 3.75754V54.8203C198.181 55.4013 198.69 55.9098 199.198 55.9098H231.957C232.465 55.9098 232.974 55.4013 232.974 54.8203V44.2881C232.974 43.707 232.465 43.2712 231.957 43.2712ZM285.72 18.1394C284.413 14.9434 282.597 12.1106 280.345 9.78628C278.021 7.53459 275.333 5.7187 272.137 4.4839C269.014 3.2491 265.6 2.66801 261.968 2.66801C258.337 2.66801 254.923 3.2491 251.799 4.4839C248.676 5.7187 245.916 7.53459 243.664 9.78628C241.413 12.1106 239.597 14.9434 238.289 18.1394C237.054 21.408 236.401 25.0397 236.401 29.1073C236.401 33.0296 237.054 36.734 238.289 40.0026C239.597 43.2712 241.413 46.1766 243.664 48.501C245.916 50.8253 248.676 52.7138 251.799 54.0213C254.923 55.2561 258.337 55.9098 261.968 55.9098C265.6 55.9098 269.014 55.2561 272.21 54.0213C275.333 52.7138 278.021 50.8253 280.345 48.501C282.597 46.1766 284.413 43.2712 285.72 40.0026C286.955 36.734 287.609 33.0296 287.609 29.1073C287.609 25.1124 286.955 21.408 285.72 18.1394ZM266.762 42.1817C265.31 42.8354 263.712 43.1986 261.968 43.1986C260.225 43.1986 258.627 42.8354 257.174 42.1817C255.722 41.4553 254.487 40.5111 253.47 39.2763C252.38 38.0415 251.581 36.5888 251 34.8455C250.347 33.1023 250.056 31.1411 250.056 29.1073C250.056 27.0735 250.347 25.185 250.928 23.5144C251.509 21.7711 252.308 20.3184 253.397 19.1563C254.414 17.9215 255.722 16.9772 257.174 16.2508C258.627 15.5971 260.225 15.2339 261.968 15.2339C263.712 15.2339 265.382 15.5971 266.835 16.2508C268.288 16.9772 269.522 17.9215 270.539 19.0836C271.629 20.3184 272.428 21.7711 273.009 23.5144C273.59 25.185 273.953 27.0735 273.953 29.1073C273.953 31.1411 273.59 33.1023 273.009 34.8455C272.428 36.5888 271.556 38.0415 270.539 39.2763C269.45 40.5111 268.215 41.4553 266.762 42.1817ZM315.582 37.2425V28.3083C315.582 27.3641 314.783 26.5651 313.839 26.5651H292.847C291.903 26.5651 291.104 27.3641 291.104 28.3083V37.2425C291.104 38.2594 291.903 38.9857 292.847 38.9857H313.839C314.783 38.9857 315.582 38.2594 315.582 37.2425ZM367.719 18.1394C366.411 14.9434 364.595 12.1106 362.344 9.78628C360.019 7.53459 357.332 5.7187 354.136 4.4839C351.013 3.2491 347.599 2.66801 343.967 2.66801C340.335 2.66801 336.921 3.2491 333.798 4.4839C330.675 5.7187 327.915 7.53459 325.663 9.78628C323.411 12.1106 321.595 14.9434 320.288 18.1394C319.053 21.408 318.399 25.0397 318.399 29.1073C318.399 33.0296 319.053 36.734 320.288 40.0026C321.595 43.2712 323.411 46.1766 325.663 48.501C327.915 50.8253 330.675 52.7138 333.798 54.0213C336.921 55.2561 340.335 55.9098 343.967 55.9098C347.599 55.9098 351.013 55.2561 354.209 54.0213C357.332 52.7138 360.019 50.8253 362.344 48.501C364.595 46.1766 366.411 43.2712 367.719 40.0026C368.954 36.734 369.607 33.0296 369.607 29.1073C369.607 25.1124 368.954 21.408 367.719 18.1394ZM348.761 42.1817C347.308 42.8354 345.71 43.1986 343.967 43.1986C342.224 43.1986 340.626 42.8354 339.173 42.1817C337.72 41.4553 336.486 40.5111 335.469 39.2763C334.379 38.0415 333.58 36.5888 332.999 34.8455C332.345 33.1023 332.055 31.1411 332.055 29.1073C332.055 27.0735 332.345 25.185 332.926 23.5144C333.507 21.7711 334.306 20.3184 335.396 19.1563C336.413 17.9215 337.72 16.9772 339.173 16.2508C340.626 15.5971 342.224 15.2339 343.967 15.2339C345.71 15.2339 347.381 15.5971 348.834 16.2508C350.286 16.9772 351.521 17.9215 352.538 19.0836C353.627 20.3184 354.426 21.7711 355.008 23.5144C355.589 25.185 355.952 27.0735 355.952 29.1073C355.952 31.1411 355.589 33.1023 355.008 34.8455C354.426 36.5888 353.555 38.0415 352.538 39.2763C351.448 40.5111 350.214 41.4553 348.761 42.1817ZM416.102 2.66801H405.28C404.481 2.66801 403.827 3.32173 403.827 4.12072V29.761L386.758 3.68491C386.612 3.10382 386.031 2.66801 385.378 2.66801H374.555C373.756 2.66801 373.102 3.32173 373.102 4.12072V54.4571C373.102 55.2561 373.756 55.9098 374.555 55.9098H385.378C386.177 55.9098 386.83 55.2561 386.83 54.4571V28.8894L403.972 55.1108C404.263 55.6192 404.699 55.9098 405.28 55.9098H416.102C416.901 55.9098 417.555 55.2561 417.555 54.4571V4.12072C417.555 3.32173 416.901 2.66801 416.102 2.66801ZM448.652 37.2425V28.3083C448.652 27.3641 447.853 26.5651 446.909 26.5651H425.917C424.973 26.5651 424.174 27.3641 424.174 28.3083V37.2425C424.174 38.2594 424.973 38.9857 425.917 38.9857H446.909C447.853 38.9857 448.652 38.2594 448.652 37.2425ZM495.777 16.5414C494.107 13.1275 491.928 10.3674 489.313 8.33358C486.698 6.29978 483.647 4.84708 480.233 3.97545C476.965 3.10382 473.551 2.66801 470.137 2.66801H452.922C452.414 2.66801 452.051 3.10382 452.051 3.53964V55.0382C452.051 55.5466 452.414 55.9098 452.922 55.9098H470.645C473.987 55.9098 477.328 55.4013 480.596 54.3844C483.865 53.3675 486.843 51.7696 489.458 49.5905C492.073 47.4114 494.179 44.5787 495.777 41.1648C497.375 37.8236 498.174 33.756 498.174 29.1799C498.174 24.1681 497.375 19.9552 495.777 16.5414ZM465.634 15.0887H469.846C471.735 15.0887 473.623 15.3066 475.367 15.7424C477.11 16.1782 478.708 16.9772 480.015 18.0667C481.395 19.0836 482.485 20.5363 483.284 22.2796C484.083 24.0955 484.519 26.4198 484.519 29.1799C484.519 31.8675 484.083 34.1918 483.284 36.0077C482.485 37.7509 481.395 39.2036 480.015 40.2932C478.635 41.3827 477.11 42.1817 475.294 42.6175C473.478 43.126 471.517 43.4165 469.556 43.4165H465.634V15.0887ZM536.827 43.2712H515.981V34.7729H534.503C535.084 34.7729 535.52 34.2644 535.52 33.6833V23.8049C535.52 23.2238 535.084 22.7154 534.503 22.7154H515.981V15.1613H535.665C536.173 15.1613 536.609 14.7255 536.609 14.1444V3.75754C536.609 3.17646 536.173 2.66801 535.665 2.66801H504.069C503.56 2.66801 503.052 3.17646 503.052 3.75754V54.8203C503.052 55.4013 503.56 55.9098 504.069 55.9098H536.827C537.336 55.9098 537.844 55.4013 537.844 54.8203V44.2881C537.844 43.707 537.336 43.2712 536.827 43.2712ZM594.44 2.66801H579.114C578.606 2.66801 578.097 3.03119 577.952 3.53964L568.8 32.8844L559.284 3.53964C559.067 3.03119 558.631 2.66801 558.122 2.66801H543.014C542.36 2.66801 541.852 3.2491 541.852 3.90282V54.675C541.852 55.3287 542.36 55.9098 543.014 55.9098H552.675C553.401 55.9098 553.909 55.3287 553.909 54.675C553.909 54.675 553.909 54.6024 553.909 54.5297L553.692 25.984L561.899 50.9706C562.045 51.479 562.553 51.8422 563.062 51.8422H573.666C574.175 51.8422 574.683 51.479 574.828 50.9706L583.327 25.7661L583.109 54.675C583.109 55.0382 583.254 55.3287 583.472 55.5466C583.69 55.7645 583.981 55.9098 584.344 55.9098H594.44C595.094 55.9098 595.675 55.3287 595.675 54.675V3.90282C595.675 3.2491 595.094 2.66801 594.44 2.66801ZM652.985 54.6024L633.155 3.2491C633.01 2.88592 632.719 2.66801 632.429 2.66801H621.17C620.807 2.66801 620.517 2.88592 620.371 3.2491L600.324 54.675C600.251 54.9655 600.251 55.2561 600.397 55.5466C600.542 55.7645 600.833 55.9098 601.123 55.9098H613.689C614.052 55.9098 614.343 55.6919 614.488 55.3287L617.757 45.8135H635.116L638.676 55.3287C638.748 55.6919 639.111 55.9098 639.402 55.9098H652.258C652.767 55.9098 653.13 55.5466 653.13 55.0382C653.13 54.8929 653.057 54.7476 652.985 54.6024ZM631.339 34.0465H621.679L626.545 19.9552L631.339 34.0465ZM696.43 2.66801H685.607C684.808 2.66801 684.154 3.32173 684.154 4.12072V29.761L667.085 3.68491C666.94 3.10382 666.359 2.66801 665.705 2.66801H654.882C654.083 2.66801 653.43 3.32173 653.43 4.12072V54.4571C653.43 55.2561 654.083 55.9098 654.882 55.9098H665.705C666.504 55.9098 667.158 55.2561 667.158 54.4571V28.8894L684.3 55.1108C684.59 55.6192 685.026 55.9098 685.607 55.9098H696.43C697.229 55.9098 697.883 55.2561 697.883 54.4571V4.12072C697.883 3.32173 697.229 2.66801 696.43 2.66801ZM748.228 16.5414C746.557 13.1275 744.378 10.3674 741.763 8.33358C739.149 6.29978 736.098 4.84708 732.684 3.97545C729.415 3.10382 726.002 2.66801 722.588 2.66801H705.373C704.865 2.66801 704.501 3.10382 704.501 3.53964V55.0382C704.501 55.5466 704.865 55.9098 705.373 55.9098H723.096C726.437 55.9098 729.779 55.4013 733.047 54.3844C736.316 53.3675 739.294 51.7696 741.909 49.5905C744.524 47.4114 746.63 44.5787 748.228 41.1648C749.826 37.8236 750.625 33.756 750.625 29.1799C750.625 24.1681 749.826 19.9552 748.228 16.5414ZM718.084 15.0887H722.297C724.186 15.0887 726.074 15.3066 727.817 15.7424C729.561 16.1782 731.159 16.9772 732.466 18.0667C733.846 19.0836 734.936 20.5363 735.735 22.2796C736.534 24.0955 736.97 26.4198 736.97 29.1799C736.97 31.8675 736.534 34.1918 735.735 36.0077C734.936 37.7509 733.846 39.2036 732.466 40.2932C731.086 41.3827 729.561 42.1817 727.745 42.6175C725.929 43.126 723.968 43.4165 722.007 43.4165H718.084V15.0887Z" fill="black"/>
</mask>
<g mask="url(#mask0_36:24)">
<g clip-path="url(#clip0_36:24)">
<rect width="1058.78" height="481.743" transform="matrix(-0.970533 -0.240966 0.24882 -0.96855 990.826 561.69)" fill="url(#paint0_linear_36:24)"/>
<g style="mix-blend-mode:hard-light" filter="url(#filter0_di_36:24)">
<path d="M-240.999 -239.928L858.798 33.1326C552.691 14.427 430.96 77.0541 302.795 252.524C180.866 419.458 -65.465 373.316 -357.46 318.296L-240.999 -239.928Z" fill="url(#paint1_linear_36:24)"/>
</g>
<g style="mix-blend-mode:hard-light" filter="url(#filter1_ddi_36:24)">
<path d="M-337.047 -263.774L762.75 9.2858C456.643 -9.41982 326.585 25.1512 154.621 151.867C-56.789 327.958 -160.557 93.7829 -366.803 114.287L-337.047 -263.774Z" fill="url(#paint2_linear_36:24)"/>
</g>
</g>
</g>
<defs>
<filter id="filter0_di_36:24" x="-440.618" y="-294.303" width="1325.01" height="717.487" filterUnits="userSpaceOnUse" color-interpolation-filters="sRGB">
<feFlood flood-opacity="0" result="BackgroundImageFix"/>
<feColorMatrix in="SourceAlpha" type="matrix" values="0 0 0 0 0 0 0 0 0 0 0 0 0 0 0 0 0 0 127 0" result="hardAlpha"/>
<feOffset dx="-28.7834"/>
<feGaussianBlur stdDeviation="27.1878"/>
<feColorMatrix type="matrix" values="0 0 0 0 0 0 0 0 0 0 0 0 0 0 0 0 0 0 0.25 0"/>
<feBlend mode="normal" in2="BackgroundImageFix" result="effect1_dropShadow_36:24"/>
<feBlend mode="normal" in="SourceGraphic" in2="effect1_dropShadow_36:24" result="shape"/>
<feColorMatrix in="SourceAlpha" type="matrix" values="0 0 0 0 0 0 0 0 0 0 0 0 0 0 0 0 0 0 127 0" result="hardAlpha"/>
<feOffset dy="7.57458"/>
<feGaussianBlur stdDeviation="15.1492"/>
<feComposite in2="hardAlpha" operator="arithmetic" k2="-1" k3="1"/>
<feColorMatrix type="matrix" values="0 0 0 0 1 0 0 0 0 1 0 0 0 0 1 0 0 0 0.25 0"/>
<feBlend mode="normal" in2="shape" result="effect2_innerShadow_36:24"/>
</filter>
<filter id="filter1_ddi_36:24" x="-448.367" y="-318.15" width="1238.3" height="590.42" filterUnits="userSpaceOnUse" color-interpolation-filters="sRGB">
<feFlood flood-opacity="0" result="BackgroundImageFix"/>
<feColorMatrix in="SourceAlpha" type="matrix" values="0 0 0 0 0 0 0 0 0 0 0 0 0 0 0 0 0 0 127 0" result="hardAlpha"/>
<feOffset dx="-27.1878"/>
<feGaussianBlur stdDeviation="27.1878"/>
<feColorMatrix type="matrix" values="0 0 0 0 0 0 0 0 0 0 0 0 0 0 0 0 0 0 0.25 0"/>
<feBlend mode="normal" in2="BackgroundImageFix" result="effect1_dropShadow_36:24"/>
<feColorMatrix in="SourceAlpha" type="matrix" values="0 0 0 0 0 0 0 0 0 0 0 0 0 0 0 0 0 0 127 0" result="hardAlpha"/>
<feOffset dy="6.05967"/>
<feGaussianBlur stdDeviation="3.02983"/>
<feColorMatrix type="matrix" values="0 0 0 0 0 0 0 0 0 0 0 0 0 0 0 0 0 0 0.25 0"/>
<feBlend mode="normal" in2="effect1_dropShadow_36:24" result="effect2_dropShadow_36:24"/>
<feBlend mode="normal" in="SourceGraphic" in2="effect2_dropShadow_36:24" result="shape"/>
<feColorMatrix in="SourceAlpha" type="matrix" values="0 0 0 0 0 0 0 0 0 0 0 0 0 0 0 0 0 0 127 0" result="hardAlpha"/>
<feOffset dx="3.02983"/>
<feGaussianBlur stdDeviation="3.78729"/>
<feComposite in2="hardAlpha" operator="arithmetic" k2="-1" k3="1"/>
<feColorMatrix type="matrix" values="0 0 0 0 1 0 0 0 0 1 0 0 0 0 1 0 0 0 0.25 0"/>
<feBlend mode="normal" in2="shape" result="effect3_innerShadow_36:24"/>
</filter>
<linearGradient id="paint0_linear_36:24" x1="70.8906" y1="176.873" x2="782.78" y2="658.286" gradientUnits="userSpaceOnUse">
<stop stop-color="#2836E4"/>
<stop offset="1" stop-color="#E11EFC"/>
</linearGradient>
<linearGradient id="paint1_linear_36:24" x1="694.743" y1="364.153" x2="36.1397" y2="-311.727" gradientUnits="userSpaceOnUse">
<stop offset="0.301302" stop-color="#E8CD3E"/>
<stop offset="1" stop-color="#2836E4" stop-opacity="0"/>
</linearGradient>
<linearGradient id="paint2_linear_36:24" x1="598.695" y1="340.306" x2="-59.908" y2="-335.574" gradientUnits="userSpaceOnUse">
<stop offset="0.301302" stop-color="#3EE8DA"/>
<stop offset="1" stop-color="#2836E4" stop-opacity="0"/>
</linearGradient>
<clipPath id="clip0_36:24">
<path d="M994.956 545.613C992.675 554.492 983.614 559.899 974.716 557.69L-148.848 278.729C-157.745 276.52 -163.108 267.531 -160.827 258.652L-34.2649 -234.001C-31.9839 -242.88 -22.9221 -248.287 -14.0249 -246.078L1109.54 32.8836C1118.44 35.0926 1123.8 44.0812 1121.52 52.9603L994.956 545.613Z" fill="white"/>
</clipPath>
</defs>
</svg>
