<svg width="79" height="26" viewBox="0 0 79 26" fill="none" xmlns="http://www.w3.org/2000/svg">
<path d="M69.6696 14.82C75.8752 14.82 79 12.3648 79 7.41056C79 2.4563 75.8752 0.00109648 69.6696 0.00109648H44.1872C41.3705 -0.0427465 38.8178 1.2287 36.4852 3.72775C35.1209 5.21841 33.3164 8.11205 31.1599 11.7949C29.3554 14.9077 27.9471 17.056 26.9788 18.1959C25.3944 20.0812 23.766 21.0457 22.1376 21.0457C20.4652 21.0457 18.8368 20.0812 17.2084 18.1959C16.2841 17.056 14.8758 14.9077 13.0713 11.7949C10.9148 8.06821 9.15432 5.48147 7.74596 3.99081C5.41337 1.49176 2.81671 0.264155 0 0.264155V5.04304C1.62841 5.04304 3.21281 6.00759 4.79721 7.89284C5.76546 8.98891 7.1298 11.1372 8.93426 14.2501C11.0908 17.9767 12.8953 20.6073 14.3036 22.098C16.6362 24.597 19.2769 25.8685 22.1816 25.8685C25.0423 25.8685 27.639 24.597 29.9716 22.098C31.3799 20.6073 33.1844 18.0206 35.341 14.2501C37.1454 11.1372 38.5098 8.72585 39.478 7.62978C40.9304 5.70069 42.6468 4.51693 44.2752 4.51693H69.7577C72.2223 4.51693 73.4986 4.95536 73.4986 7.45441C73.4986 9.90962 72.2663 11.1811 69.7577 11.1811H52.9894C46.7838 11.1811 43.6591 13.6363 43.6591 18.5905V26H49.2485V18.5028C49.2485 16.0476 50.4808 14.7762 52.9894 14.7762H57.1265L70.8579 25.9562H79L65.5326 14.82H69.6696Z" fill="white"/>
</svg>
